<svg width="371" height="84" viewBox="0 0 371 84" fill="none" xmlns="http://www.w3.org/2000/svg">
    <circle cx="27" cy="57" r="26" stroke="#F5F5F5" stroke-width="2" />
    <path
        d="M364.386 19.2841C363.072 19.2841 361.939 18.9941 360.986 18.4141C360.039 17.8281 359.308 17.0114 358.793 15.9638C358.284 14.9103 358.03 13.6851 358.03 12.2884C358.03 10.8916 358.284 9.66051 358.793 8.59517C359.308 7.52391 360.024 6.68939 360.942 6.09162C361.865 5.48793 362.942 5.18608 364.173 5.18608C364.884 5.18608 365.585 5.30445 366.277 5.54119C366.97 5.77794 367.6 6.16264 368.168 6.69531C368.737 7.22207 369.189 7.92046 369.527 8.79048C369.864 9.66051 370.033 10.7318 370.033 12.0043V12.892H359.521V11.081H367.902C367.902 10.3116 367.748 9.625 367.44 9.02131C367.139 8.41761 366.706 7.94117 366.144 7.59198C365.588 7.24278 364.931 7.06818 364.173 7.06818C363.339 7.06818 362.617 7.27533 362.007 7.68963C361.403 8.09801 360.939 8.63068 360.613 9.28764C360.288 9.9446 360.125 10.6489 360.125 11.4006V12.608C360.125 13.6378 360.303 14.5108 360.658 15.2269C361.019 15.9371 361.519 16.4787 362.158 16.8516C362.797 17.2185 363.54 17.402 364.386 17.402C364.937 17.402 365.434 17.325 365.878 17.1712C366.328 17.0114 366.715 16.7746 367.041 16.4609C367.366 16.1413 367.618 15.7448 367.795 15.2713L369.82 15.8395C369.607 16.526 369.248 17.1297 368.745 17.6506C368.242 18.1655 367.621 18.5679 366.881 18.858C366.141 19.142 365.31 19.2841 364.386 19.2841Z"
        fill="white" />
    <path
        d="M346.14 10.7969V19H344.045V5.36364H346.069V7.49432H346.247C346.566 6.80185 347.052 6.2455 347.703 5.82528C348.354 5.39915 349.194 5.18608 350.224 5.18608C351.147 5.18608 351.955 5.37547 352.648 5.75426C353.34 6.12713 353.879 6.69531 354.263 7.45881C354.648 8.21638 354.84 9.17519 354.84 10.3352V19H352.745V10.4773C352.745 9.40601 352.467 8.5715 351.911 7.97372C351.354 7.37003 350.591 7.06818 349.62 7.06818C348.952 7.06818 348.354 7.21319 347.827 7.5032C347.306 7.79321 346.895 8.21638 346.593 8.77273C346.291 9.32907 346.14 10.0038 346.14 10.7969Z"
        fill="white" />
    <path
        d="M338.112 19V5.36364H340.208V19H338.112ZM339.178 3.09091C338.769 3.09091 338.417 2.95182 338.121 2.67365C337.831 2.39548 337.686 2.06108 337.686 1.67045C337.686 1.27983 337.831 0.945431 338.121 0.667258C338.417 0.389086 338.769 0.25 339.178 0.25C339.586 0.25 339.935 0.389086 340.225 0.667258C340.521 0.945431 340.669 1.27983 340.669 1.67045C340.669 2.06108 340.521 2.39548 340.225 2.67365C339.935 2.95182 339.586 3.09091 339.178 3.09091Z"
        fill="white" />
    <path
        d="M322.878 24.1136V5.36364H324.902V7.52983H325.151C325.305 7.29309 325.518 6.99124 325.79 6.62429C326.068 6.25142 326.465 5.91998 326.98 5.62997C327.5 5.33404 328.205 5.18608 329.093 5.18608C330.241 5.18608 331.253 5.47313 332.129 6.04723C333.005 6.62133 333.688 7.43513 334.18 8.48864C334.671 9.54214 334.916 10.785 334.916 12.2173C334.916 13.6615 334.671 14.9132 334.18 15.9727C333.688 17.0262 333.008 17.8429 332.138 18.4229C331.268 18.997 330.264 19.2841 329.128 19.2841C328.252 19.2841 327.551 19.1391 327.024 18.8491C326.497 18.5532 326.092 18.2188 325.808 17.8459C325.524 17.4671 325.305 17.1534 325.151 16.9048H324.973V24.1136H322.878ZM324.938 12.1818C324.938 13.2116 325.089 14.1201 325.39 14.9073C325.692 15.6886 326.133 16.3011 326.713 16.745C327.293 17.183 328.004 17.402 328.844 17.402C329.72 17.402 330.451 17.1712 331.037 16.7095C331.629 16.242 332.073 15.6146 332.368 14.8274C332.67 14.0343 332.821 13.1525 332.821 12.1818C332.821 11.223 332.673 10.3589 332.377 9.58949C332.087 8.81416 331.646 8.20159 331.055 7.75178C330.469 7.29605 329.732 7.06818 328.844 7.06818C327.992 7.06818 327.276 7.28421 326.696 7.71626C326.116 8.1424 325.678 8.74018 325.382 9.50959C325.086 10.2731 324.938 11.1638 324.938 12.1818Z"
        fill="white" />
    <path
        d="M317.163 5.36364C317.056 4.46402 316.624 3.76563 315.867 3.26847C315.109 2.77131 314.18 2.52273 313.079 2.52273C312.274 2.52273 311.57 2.65294 310.966 2.91335C310.368 3.17377 309.901 3.53184 309.564 3.98757C309.232 4.4433 309.066 4.96117 309.066 5.54119C309.066 6.02651 309.182 6.44377 309.413 6.79297C309.649 7.13625 309.951 7.4233 310.318 7.65412C310.685 7.87902 311.07 8.06546 311.472 8.21342C311.875 8.35547 312.245 8.47088 312.582 8.55966L314.429 9.05682C314.902 9.18111 315.429 9.35275 316.009 9.57173C316.595 9.79072 317.154 10.0896 317.687 10.4684C318.225 10.8413 318.669 11.3207 319.018 11.9066C319.368 12.4925 319.542 13.2116 319.542 14.0639C319.542 15.0464 319.285 15.9342 318.77 16.7273C318.261 17.5204 317.515 18.1507 316.533 18.6183C315.556 19.0858 314.369 19.3196 312.973 19.3196C311.671 19.3196 310.543 19.1095 309.59 18.6893C308.643 18.2691 307.897 17.6831 307.353 16.9315C306.814 16.1798 306.51 15.3068 306.439 14.3125H308.711C308.77 14.9991 309.001 15.5672 309.404 16.017C309.812 16.4609 310.327 16.7924 310.948 17.0114C311.576 17.2244 312.251 17.331 312.973 17.331C313.813 17.331 314.568 17.1948 315.236 16.9226C315.905 16.6444 316.435 16.2597 316.826 15.7685C317.216 15.2713 317.412 14.6913 317.412 14.0284C317.412 13.4247 317.243 12.9335 316.906 12.5547C316.568 12.1759 316.124 11.8681 315.574 11.6314C315.023 11.3946 314.429 11.1875 313.789 11.0099L311.552 10.3707C310.132 9.96236 309.007 9.37938 308.179 8.6218C307.35 7.86423 306.936 6.87287 306.936 5.64773C306.936 4.62974 307.211 3.74195 307.761 2.98438C308.318 2.22088 309.063 1.62902 309.999 1.20881C310.94 0.782671 311.99 0.569603 313.15 0.569603C314.322 0.569603 315.364 0.779712 316.275 1.19993C317.187 1.61423 317.909 2.18241 318.441 2.90447C318.98 3.62654 319.264 4.44626 319.294 5.36364H317.163Z"
        fill="white" />
    <path d="M296.067 0.818184V19H293.972V0.818184H296.067Z" fill="white" />
    <path
        d="M283.898 19.3196C283.034 19.3196 282.249 19.1568 281.545 18.8313C280.841 18.4999 280.281 18.0234 279.867 17.402C279.453 16.7746 279.246 16.017 279.246 15.1293C279.246 14.348 279.4 13.7147 279.707 13.2294C280.015 12.7382 280.426 12.3535 280.941 12.0753C281.456 11.7971 282.024 11.59 282.646 11.4538C283.273 11.3118 283.904 11.1993 284.537 11.1165C285.365 11.0099 286.037 10.93 286.552 10.8768C287.073 10.8176 287.452 10.7199 287.688 10.5838C287.931 10.4477 288.052 10.2109 288.052 9.87358V9.80256C288.052 8.92661 287.813 8.24598 287.333 7.76065C286.86 7.27533 286.141 7.03267 285.176 7.03267C284.176 7.03267 283.392 7.25166 282.823 7.68963C282.255 8.1276 281.856 8.59517 281.625 9.09233L279.636 8.3821C279.991 7.5535 280.465 6.90838 281.057 6.44673C281.655 5.97917 282.306 5.65365 283.01 5.47017C283.72 5.28078 284.418 5.18608 285.105 5.18608C285.543 5.18608 286.046 5.23935 286.614 5.34588C287.188 5.4465 287.742 5.6566 288.274 5.97621C288.813 6.29581 289.26 6.77817 289.615 7.4233C289.97 8.06842 290.148 8.93253 290.148 10.0156V19H288.052V17.1534H287.946C287.804 17.4493 287.567 17.766 287.236 18.1033C286.904 18.4407 286.463 18.7277 285.913 18.9645C285.362 19.2012 284.691 19.3196 283.898 19.3196ZM284.217 17.4375C285.046 17.4375 285.744 17.2747 286.312 16.9492C286.887 16.6237 287.319 16.2035 287.609 15.6886C287.905 15.1737 288.052 14.6321 288.052 14.0639V12.1463C287.964 12.2528 287.768 12.3505 287.467 12.4393C287.171 12.5221 286.827 12.5961 286.437 12.6612C286.052 12.7204 285.676 12.7737 285.309 12.821C284.948 12.8625 284.655 12.898 284.43 12.9276C283.886 12.9986 283.377 13.114 282.903 13.2738C282.436 13.4277 282.057 13.6615 281.767 13.9751C281.483 14.2829 281.341 14.7031 281.341 15.2358C281.341 15.9638 281.61 16.5142 282.149 16.8871C282.693 17.254 283.383 17.4375 284.217 17.4375Z"
        fill="white" />
    <path
        d="M271.46 19.2841C270.181 19.2841 269.081 18.9822 268.157 18.3786C267.234 17.7749 266.524 16.9433 266.027 15.8839C265.529 14.8245 265.281 13.6141 265.281 12.2528C265.281 10.8679 265.535 9.64572 266.044 8.58629C266.559 7.52095 267.275 6.68939 268.193 6.09162C269.116 5.48793 270.193 5.18608 271.424 5.18608C272.383 5.18608 273.247 5.36364 274.017 5.71875C274.786 6.07386 275.416 6.57102 275.908 7.21023C276.399 7.84943 276.704 8.59517 276.822 9.44744H274.727C274.567 8.826 274.212 8.27557 273.661 7.79617C273.117 7.31084 272.383 7.06818 271.46 7.06818C270.643 7.06818 269.927 7.28125 269.311 7.70739C268.702 8.1276 268.225 8.72242 267.882 9.49183C267.545 10.2553 267.376 11.152 267.376 12.1818C267.376 13.2353 267.542 14.1527 267.873 14.9339C268.211 15.7152 268.684 16.3219 269.294 16.7539C269.909 17.186 270.631 17.402 271.46 17.402C272.004 17.402 272.499 17.3073 272.942 17.1179C273.386 16.9285 273.762 16.6563 274.07 16.3011C274.378 15.946 274.597 15.5199 274.727 15.0227H276.822C276.704 15.8277 276.411 16.5527 275.943 17.1978C275.481 17.837 274.869 18.346 274.105 18.7248C273.348 19.0977 272.466 19.2841 271.46 19.2841Z"
        fill="white" />
    <path
        d="M259.987 19V5.36364H262.083V19H259.987ZM261.053 3.09091C260.644 3.09091 260.292 2.95182 259.996 2.67365C259.706 2.39548 259.561 2.06108 259.561 1.67045C259.561 1.27983 259.706 0.945431 259.996 0.667258C260.292 0.389086 260.644 0.25 261.053 0.25C261.461 0.25 261.81 0.389086 262.1 0.667258C262.396 0.945431 262.544 1.27983 262.544 1.67045C262.544 2.06108 262.396 2.39548 262.1 2.67365C261.81 2.95182 261.461 3.09091 261.053 3.09091Z"
        fill="white" />
    <path
        d="M257.222 5.36363L252.179 19H250.049L245.006 5.36363H247.279L251.043 16.2301H251.185L254.949 5.36363H257.222Z"
        fill="white" />
    <path
        d="M236.355 19V5.36364H238.379V7.42329H238.521C238.769 6.74858 239.219 6.20111 239.87 5.78089C240.521 5.36067 241.255 5.15057 242.072 5.15057C242.226 5.15057 242.418 5.15353 242.649 5.15944C242.88 5.16536 243.054 5.17424 243.173 5.18608V7.31676C243.102 7.299 242.939 7.27237 242.685 7.23686C242.436 7.19543 242.173 7.17472 241.894 7.17472C241.232 7.17472 240.64 7.3138 240.119 7.59197C239.604 7.86423 239.196 8.24302 238.894 8.72834C238.598 9.20774 238.45 9.75521 238.45 10.3707V19H236.355Z"
        fill="white" />
    <path
        d="M227.521 19.2841C226.207 19.2841 225.074 18.9941 224.121 18.4141C223.174 17.8281 222.443 17.0114 221.928 15.9638C221.419 14.9103 221.165 13.6851 221.165 12.2884C221.165 10.8916 221.419 9.66051 221.928 8.59517C222.443 7.52391 223.159 6.68939 224.077 6.09162C225 5.48793 226.077 5.18608 227.308 5.18608C228.018 5.18608 228.72 5.30445 229.412 5.54119C230.105 5.77794 230.735 6.16264 231.303 6.69531C231.871 7.22207 232.324 7.92046 232.661 8.79048C232.999 9.66051 233.167 10.7318 233.167 12.0043V12.892H222.656V11.081H231.037C231.037 10.3116 230.883 9.625 230.575 9.02131C230.273 8.41761 229.841 7.94117 229.279 7.59198C228.723 7.24278 228.066 7.06818 227.308 7.06818C226.474 7.06818 225.751 7.27533 225.142 7.68963C224.538 8.09801 224.074 8.63068 223.748 9.28764C223.423 9.9446 223.26 10.6489 223.26 11.4006V12.608C223.26 13.6378 223.437 14.5108 223.792 15.2269C224.153 15.9371 224.654 16.4787 225.293 16.8516C225.932 17.2185 226.675 17.402 227.521 17.402C228.072 17.402 228.569 17.325 229.013 17.1712C229.462 17.0114 229.85 16.7746 230.176 16.4609C230.501 16.1413 230.753 15.7448 230.93 15.2713L232.954 15.8395C232.741 16.526 232.383 17.1297 231.88 17.6506C231.377 18.1655 230.756 18.5679 230.016 18.858C229.276 19.142 228.444 19.2841 227.521 19.2841Z"
        fill="white" />
    <path
        d="M218.53 6.5H216.328C216.198 5.86671 215.97 5.31037 215.645 4.83097C215.325 4.35156 214.935 3.9491 214.473 3.62358C214.017 3.29214 213.511 3.04356 212.955 2.87784C212.398 2.71212 211.818 2.62926 211.215 2.62926C210.114 2.62926 209.117 2.90743 208.223 3.46378C207.335 4.02012 206.628 4.83984 206.101 5.92294C205.58 7.00604 205.32 8.33475 205.32 9.90909C205.32 11.4834 205.58 12.8121 206.101 13.8952C206.628 14.9783 207.335 15.7981 208.223 16.3544C209.117 16.9107 210.114 17.1889 211.215 17.1889C211.818 17.1889 212.398 17.1061 212.955 16.9403C213.511 16.7746 214.017 16.529 214.473 16.2035C214.935 15.872 215.325 15.4666 215.645 14.9872C215.97 14.5019 216.198 13.9456 216.328 13.3182H218.53C218.364 14.2474 218.063 15.079 217.625 15.8129C217.187 16.5468 216.642 17.1712 215.991 17.6861C215.34 18.1951 214.609 18.5827 213.798 18.8491C212.993 19.1154 212.132 19.2486 211.215 19.2486C209.664 19.2486 208.285 18.8698 207.078 18.1122C205.87 17.3546 204.92 16.2775 204.228 14.8807C203.535 13.4839 203.189 11.8267 203.189 9.90909C203.189 7.99148 203.535 6.33428 204.228 4.9375C204.92 3.54072 205.87 2.46354 207.078 1.70597C208.285 0.948391 209.664 0.569603 211.215 0.569603C212.132 0.569603 212.993 0.70277 213.798 0.969106C214.609 1.23544 215.34 1.62607 215.991 2.14098C216.642 2.64998 217.187 3.27143 217.625 4.00533C218.063 4.73331 218.364 5.56487 218.53 6.5Z"
        fill="white" />
    <path d="M27 57L72.3455 27H371" stroke="#F5F5F5" stroke-width="2" />
    <path
        d="M68.311 59.0544L68.1174 59.1092C68.1053 59.0769 68.0873 59.0456 68.0636 59.0151C68.0404 58.9841 68.0088 58.9585 67.9686 58.9384C67.9284 58.9183 67.877 58.9083 67.8143 58.9083C67.7284 58.9083 67.6569 58.9281 67.5997 58.9676C67.5431 59.0066 67.5148 59.0562 67.5148 59.1165C67.5148 59.17 67.5342 59.2124 67.5732 59.2434C67.6122 59.2745 67.673 59.3003 67.7558 59.321L67.964 59.3722C68.0894 59.4026 68.1829 59.4492 68.2444 59.5119C68.3059 59.574 68.3366 59.654 68.3366 59.752C68.3366 59.8324 68.3135 59.9042 68.2672 59.9675C68.2215 60.0308 68.1576 60.0808 68.0754 60.1173C67.9933 60.1538 67.8977 60.1721 67.7887 60.1721C67.6457 60.1721 67.5272 60.141 67.4335 60.0789C67.3397 60.0168 67.2804 59.9261 67.2554 59.8068L67.46 59.7557C67.4795 59.8312 67.5163 59.8878 67.5705 59.9255C67.6253 59.9633 67.6968 59.9821 67.7851 59.9821C67.8855 59.9821 67.9653 59.9608 68.0243 59.9182C68.084 59.875 68.1138 59.8233 68.1138 59.763C68.1138 59.7143 68.0967 59.6735 68.0627 59.6406C68.0286 59.6071 67.9762 59.5822 67.9056 59.5657L67.6718 59.511C67.5434 59.4805 67.449 59.4333 67.3888 59.3694C67.3291 59.3049 67.2993 59.2242 67.2993 59.1274C67.2993 59.0483 67.3215 58.9783 67.3659 58.9174C67.411 58.8565 67.4722 58.8087 67.5495 58.774C67.6274 58.7393 67.7157 58.722 67.8143 58.722C67.9531 58.722 68.062 58.7524 68.1412 58.8133C68.2209 58.8742 68.2776 58.9545 68.311 59.0544Z"
        fill="white" />
    <path
        d="M66.7073 60.1429V58.7403H66.9228V60.1429H66.7073ZM66.8169 58.5065C66.7749 58.5065 66.7386 58.4922 66.7082 58.4636C66.6784 58.435 66.6635 58.4006 66.6635 58.3604C66.6635 58.3202 66.6784 58.2858 66.7082 58.2572C66.7386 58.2286 66.7749 58.2143 66.8169 58.2143C66.8589 58.2143 66.8948 58.2286 66.9246 58.2572C66.9551 58.2858 66.9703 58.3202 66.9703 58.3604C66.9703 58.4006 66.9551 58.435 66.9246 58.4636C66.8948 58.4922 66.8589 58.5065 66.8169 58.5065Z"
        fill="white" />
    <path
        d="M66.3574 59.0544L66.1638 59.1092C66.1516 59.0769 66.1336 59.0456 66.1099 59.0151C66.0868 58.9841 66.0551 58.9585 66.0149 58.9384C65.9748 58.9183 65.9233 58.9083 65.8606 58.9083C65.7748 58.9083 65.7032 58.9281 65.646 58.9676C65.5894 59.0066 65.5611 59.0562 65.5611 59.1165C65.5611 59.17 65.5806 59.2124 65.6195 59.2434C65.6585 59.2745 65.7194 59.3003 65.8022 59.321L66.0104 59.3722C66.1358 59.4026 66.2292 59.4492 66.2907 59.5119C66.3522 59.574 66.3829 59.654 66.3829 59.752C66.3829 59.8324 66.3598 59.9042 66.3135 59.9675C66.2679 60.0308 66.204 60.0808 66.1218 60.1173C66.0396 60.1538 65.944 60.1721 65.835 60.1721C65.692 60.1721 65.5736 60.141 65.4798 60.0789C65.3861 60.0168 65.3267 59.9261 65.3018 59.8068L65.5063 59.7557C65.5258 59.8312 65.5626 59.8878 65.6168 59.9255C65.6716 59.9633 65.7431 59.9821 65.8314 59.9821C65.9318 59.9821 66.0116 59.9608 66.0706 59.9182C66.1303 59.875 66.1601 59.8233 66.1601 59.763C66.1601 59.7143 66.1431 59.6735 66.109 59.6406C66.0749 59.6071 66.0225 59.5822 65.9519 59.5657L65.7182 59.511C65.5897 59.4805 65.4953 59.4333 65.4351 59.3694C65.3754 59.3049 65.3456 59.2242 65.3456 59.1274C65.3456 59.0483 65.3678 58.9783 65.4123 58.9174C65.4573 58.8565 65.5185 58.8087 65.5958 58.774C65.6737 58.7393 65.762 58.722 65.8606 58.722C65.9994 58.722 66.1084 58.7524 66.1875 58.8133C66.2673 58.8742 66.3239 58.9545 66.3574 59.0544Z"
        fill="white" />
    <path
        d="M64.3993 60.1721C64.2727 60.1721 64.1616 60.1419 64.066 60.0817C63.971 60.0214 63.8967 59.9371 63.8432 59.8287C63.7902 59.7204 63.7637 59.5937 63.7637 59.4489C63.7637 59.3028 63.7902 59.1752 63.8432 59.0663C63.8967 58.9573 63.971 58.8727 64.066 58.8124C64.1616 58.7521 64.2727 58.722 64.3993 58.722C64.5259 58.722 64.6367 58.7521 64.7317 58.8124C64.8272 58.8727 64.9015 58.9573 64.9545 59.0663C65.0081 59.1752 65.0348 59.3028 65.0348 59.4489C65.0348 59.5937 65.0081 59.7204 64.9545 59.8287C64.9015 59.9371 64.8272 60.0214 64.7317 60.0817C64.6367 60.1419 64.5259 60.1721 64.3993 60.1721ZM64.3993 59.9785C64.4955 59.9785 64.5746 59.9538 64.6367 59.9045C64.6988 59.8552 64.7448 59.7904 64.7746 59.71C64.8044 59.6297 64.8193 59.5426 64.8193 59.4489C64.8193 59.3551 64.8044 59.2678 64.7746 59.1868C64.7448 59.1058 64.6988 59.0404 64.6367 58.9905C64.5746 58.9405 64.4955 58.9156 64.3993 58.9156C64.3031 58.9156 64.224 58.9405 64.1619 58.9905C64.0998 59.0404 64.0538 59.1058 64.024 59.1868C63.9942 59.2678 63.9792 59.3551 63.9792 59.4489C63.9792 59.5426 63.9942 59.6297 64.024 59.71C64.0538 59.7904 64.0998 59.8552 64.1619 59.9045C64.224 59.9538 64.3031 59.9785 64.3993 59.9785Z"
        fill="white" />
    <path
        d="M62.9155 60.1429V58.7403H63.1237V58.9521H63.1383C63.1638 58.8827 63.2101 58.8264 63.2771 58.7832C63.344 58.74 63.4195 58.7183 63.5035 58.7183C63.5194 58.7183 63.5391 58.7187 63.5629 58.7193C63.5866 58.7199 63.6046 58.7208 63.6168 58.722V58.9412C63.6095 58.9393 63.5927 58.9366 63.5665 58.9329C63.541 58.9287 63.5139 58.9265 63.4853 58.9265C63.4171 58.9265 63.3562 58.9408 63.3026 58.9695C63.2497 58.9975 63.2077 59.0364 63.1766 59.0863C63.1462 59.1357 63.131 59.192 63.131 59.2553V60.1429H62.9155Z"
        fill="white" />
    <path
        d="M61.6117 59.2991V60.1429H61.3962V58.2727H61.6117V58.9594H61.6299C61.6628 58.887 61.7121 58.8294 61.7779 58.7868C61.8442 58.7436 61.9325 58.722 62.0427 58.722C62.1383 58.722 62.222 58.7412 62.2938 58.7795C62.3656 58.8173 62.4213 58.8754 62.4609 58.9539C62.5011 59.0319 62.5212 59.1311 62.5212 59.2516V60.1429H62.3057V59.2662C62.3057 59.1548 62.2768 59.0687 62.2189 59.0078C62.1617 58.9463 62.0823 58.9156 61.9806 58.9156C61.91 58.9156 61.8467 58.9305 61.7907 58.9603C61.7353 58.9902 61.6914 59.0337 61.6592 59.0909C61.6275 59.1481 61.6117 59.2175 61.6117 59.2991Z"
        fill="white" />
    <path
        d="M61.0419 58.7403V58.9229H60.315V58.7403H61.0419ZM60.5269 58.4042H60.7424V59.7411C60.7424 59.8019 60.7512 59.8476 60.7688 59.878C60.7871 59.9079 60.8102 59.928 60.8382 59.9383C60.8668 59.9481 60.897 59.9529 60.9286 59.9529C60.9524 59.9529 60.9719 59.9517 60.9871 59.9493C61.0023 59.9462 61.0145 59.9438 61.0236 59.942L61.0674 60.1356C61.0528 60.141 61.0324 60.1465 61.0063 60.152C60.9801 60.1581 60.9469 60.1611 60.9067 60.1611C60.8458 60.1611 60.7862 60.148 60.7277 60.1219C60.6699 60.0957 60.6218 60.0558 60.5835 60.0022C60.5457 59.9487 60.5269 59.8811 60.5269 59.7995V58.4042Z"
        fill="white" />
    <path
        d="M59.3873 60.1429V58.7403H59.5955V58.9521H59.6101C59.6356 58.8827 59.6819 58.8264 59.7489 58.7832C59.8158 58.74 59.8913 58.7183 59.9753 58.7183C59.9912 58.7183 60.0109 58.7187 60.0347 58.7193C60.0584 58.7199 60.0764 58.7208 60.0886 58.722V58.9412C60.0813 58.9393 60.0645 58.9366 60.0383 58.9329C60.0128 58.9287 59.9857 58.9265 59.9571 58.9265C59.8889 58.9265 59.828 58.9408 59.7744 58.9695C59.7215 58.9975 59.6795 59.0364 59.6484 59.0863C59.618 59.1357 59.6028 59.192 59.6028 59.2553V60.1429H59.3873Z"
        fill="white" />
    <path
        d="M58.351 60.1757C58.2622 60.1757 58.1815 60.159 58.1091 60.1255C58.0366 60.0914 57.9791 60.0424 57.9365 59.9785C57.8939 59.914 57.8726 59.836 57.8726 59.7447C57.8726 59.6644 57.8884 59.5992 57.92 59.5493C57.9517 59.4988 57.994 59.4592 58.047 59.4306C58.0999 59.402 58.1584 59.3807 58.2223 59.3667C58.2868 59.3521 58.3517 59.3405 58.4168 59.332C58.502 59.321 58.5711 59.3128 58.6241 59.3073C58.6777 59.3012 58.7166 59.2912 58.741 59.2772C58.7659 59.2632 58.7784 59.2388 58.7784 59.2041V59.1968C58.7784 59.1067 58.7537 59.0367 58.7044 58.9868C58.6557 58.9369 58.5818 58.9119 58.4825 58.9119C58.3797 58.9119 58.299 58.9345 58.2406 58.9795C58.1821 59.0246 58.141 59.0726 58.1173 59.1238L57.9127 59.0507C57.9493 58.9655 57.998 58.8991 58.0588 58.8517C58.1203 58.8036 58.1873 58.7701 58.2597 58.7512C58.3328 58.7317 58.4046 58.722 58.4752 58.722C58.5203 58.722 58.572 58.7275 58.6305 58.7384C58.6895 58.7488 58.7464 58.7704 58.8012 58.8033C58.8566 58.8361 58.9026 58.8858 58.9391 58.9521C58.9756 59.0185 58.9939 59.1073 58.9939 59.2187V60.1429H58.7784V59.9529H58.7674C58.7528 59.9834 58.7285 60.0159 58.6944 60.0506C58.6603 60.0853 58.6149 60.1149 58.5583 60.1392C58.5017 60.1636 58.4326 60.1757 58.351 60.1757ZM58.3839 59.9821C58.4691 59.9821 58.541 59.9654 58.5994 59.9319C58.6585 59.8984 58.7029 59.8552 58.7327 59.8023C58.7632 59.7493 58.7784 59.6936 58.7784 59.6351V59.4379C58.7693 59.4489 58.7492 59.4589 58.7181 59.468C58.6877 59.4766 58.6524 59.4842 58.6122 59.4909C58.5726 59.497 58.534 59.5024 58.4962 59.5073C58.4591 59.5116 58.429 59.5152 58.4058 59.5183C58.3498 59.5256 58.2975 59.5374 58.2488 59.5539C58.2007 59.5697 58.1617 59.5937 58.1319 59.626C58.1027 59.6577 58.0881 59.7009 58.0881 59.7557C58.0881 59.8306 58.1158 59.8872 58.1712 59.9255C58.2272 59.9633 58.2981 59.9821 58.3839 59.9821Z"
        fill="white" />
    <path d="M57.5436 58.2727V60.1429H57.3281V58.2727H57.5436Z" fill="white" />
    <path
        d="M56.0355 60.6688C55.999 60.6688 55.9665 60.6658 55.9378 60.6597C55.9092 60.6542 55.8894 60.6487 55.8785 60.6433L55.9333 60.4533C55.9856 60.4667 56.0319 60.4716 56.0721 60.4679C56.1123 60.4643 56.1479 60.4463 56.1789 60.4141C56.2106 60.3824 56.2395 60.331 56.2657 60.2597L56.3058 60.1502L55.7872 58.7403H56.0209L56.4081 59.858H56.4227L56.8099 58.7403H57.0437L56.4483 60.3474C56.4215 60.4198 56.3883 60.4798 56.3488 60.5273C56.3092 60.5754 56.2632 60.611 56.2109 60.6341C56.1591 60.6573 56.1007 60.6688 56.0355 60.6688Z"
        fill="white" />
    <path
        d="M54.8293 60.1721C54.7124 60.1721 54.6092 60.1426 54.5197 60.0835C54.4302 60.0238 54.3602 59.9398 54.3097 59.8315C54.2592 59.7225 54.2339 59.5938 54.2339 59.4452C54.2339 59.2979 54.2592 59.17 54.3097 59.0617C54.3602 58.9533 54.4305 58.8696 54.5206 58.8106C54.6107 58.7515 54.7148 58.722 54.8329 58.722C54.9242 58.722 54.9964 58.7372 55.0493 58.7677C55.1029 58.7975 55.1437 58.8316 55.1717 58.8699C55.2003 58.9077 55.2225 58.9387 55.2384 58.9631H55.2566V58.2727H55.4721V60.1429H55.2639V59.9274H55.2384C55.2225 59.9529 55.2 59.9852 55.1708 60.0241C55.1416 60.0625 55.0999 60.0969 55.0457 60.1273C54.9915 60.1572 54.9194 60.1721 54.8293 60.1721ZM54.8585 59.9785C54.9449 59.9785 55.018 59.956 55.0776 59.9109C55.1373 59.8653 55.1826 59.8023 55.2137 59.7219C55.2447 59.6409 55.2603 59.5475 55.2603 59.4416C55.2603 59.3369 55.245 59.2452 55.2146 59.1667C55.1842 59.0876 55.1391 59.0261 55.0795 58.9822C55.0198 58.9378 54.9461 58.9156 54.8585 58.9156C54.7672 58.9156 54.6911 58.939 54.6302 58.9859C54.5699 59.0322 54.5246 59.0952 54.4941 59.1749C54.4643 59.2541 54.4494 59.3429 54.4494 59.4416C54.4494 59.5414 54.4646 59.6321 54.495 59.7137C54.5261 59.7946 54.5718 59.8592 54.632 59.9073C54.6929 59.9547 54.7684 59.9785 54.8585 59.9785Z"
        fill="white" />
    <path
        d="M53.011 59.2991V60.1429H52.7955V58.7403H53.0037V58.9594H53.0219C53.0548 58.8882 53.1047 58.831 53.1717 58.7877C53.2387 58.7439 53.3251 58.722 53.431 58.722C53.526 58.722 53.6091 58.7415 53.6803 58.7804C53.7515 58.8188 53.8069 58.8772 53.8465 58.9558C53.8861 59.0337 53.9059 59.1323 53.9059 59.2516V60.1429H53.6904V59.2662C53.6904 59.156 53.6617 59.0702 53.6045 59.0087C53.5473 58.9466 53.4688 58.9156 53.3689 58.9156C53.3001 58.9156 53.2387 58.9305 53.1845 58.9603C53.1309 58.9902 53.0886 59.0337 53.0575 59.0909C53.0265 59.1481 53.011 59.2175 53.011 59.2991Z"
        fill="white" />
    <path
        d="M51.8309 60.1721C51.7043 60.1721 51.5932 60.1419 51.4976 60.0817C51.4027 60.0214 51.3284 59.9371 51.2748 59.8287C51.2219 59.7204 51.1954 59.5937 51.1954 59.4489C51.1954 59.3028 51.2219 59.1752 51.2748 59.0663C51.3284 58.9573 51.4027 58.8727 51.4976 58.8124C51.5932 58.7521 51.7043 58.722 51.8309 58.722C51.9575 58.722 52.0683 58.7521 52.1633 58.8124C52.2589 58.8727 52.3332 58.9573 52.3861 59.0663C52.4397 59.1752 52.4665 59.3028 52.4665 59.4489C52.4665 59.5937 52.4397 59.7204 52.3861 59.8287C52.3332 59.9371 52.2589 60.0214 52.1633 60.0817C52.0683 60.1419 51.9575 60.1721 51.8309 60.1721ZM51.8309 59.9785C51.9271 59.9785 52.0062 59.9538 52.0683 59.9045C52.1304 59.8552 52.1764 59.7904 52.2062 59.71C52.2361 59.6297 52.251 59.5426 52.251 59.4489C52.251 59.3551 52.2361 59.2678 52.2062 59.1868C52.1764 59.1058 52.1304 59.0404 52.0683 58.9905C52.0062 58.9405 51.9271 58.9156 51.8309 58.9156C51.7347 58.9156 51.6556 58.9405 51.5935 58.9905C51.5314 59.0404 51.4855 59.1058 51.4556 59.1868C51.4258 59.2678 51.4109 59.3551 51.4109 59.4489C51.4109 59.5426 51.4258 59.6297 51.4556 59.71C51.4855 59.7904 51.5314 59.8552 51.5935 59.9045C51.6556 59.9538 51.7347 59.9785 51.8309 59.9785Z"
        fill="white" />
    <path
        d="M49.6942 60.6688V58.7403H49.9024V58.9631H49.9279C49.9437 58.9387 49.9657 58.9077 49.9937 58.8699C50.0223 58.8316 50.0631 58.7975 50.116 58.7677C50.1696 58.7372 50.242 58.722 50.3334 58.722C50.4515 58.722 50.5556 58.7515 50.6457 58.8106C50.7358 58.8696 50.8061 58.9533 50.8566 59.0617C50.9071 59.17 50.9324 59.2979 50.9324 59.4452C50.9324 59.5937 50.9071 59.7225 50.8566 59.8315C50.8061 59.9398 50.7361 60.0238 50.6466 60.0835C50.5571 60.1426 50.4539 60.1721 50.337 60.1721C50.2469 60.1721 50.1748 60.1572 50.1206 60.1273C50.0664 60.0969 50.0247 60.0625 49.9955 60.0241C49.9663 59.9852 49.9437 59.9529 49.9279 59.9274H49.9097V60.6688H49.6942ZM49.906 59.4416C49.906 59.5475 49.9215 59.6409 49.9526 59.7219C49.9836 59.8023 50.029 59.8653 50.0886 59.9109C50.1483 59.956 50.2213 59.9785 50.3078 59.9785C50.3979 59.9785 50.4731 59.9547 50.5333 59.9073C50.5942 59.8592 50.6399 59.7946 50.6703 59.7137C50.7014 59.6321 50.7169 59.5414 50.7169 59.4416C50.7169 59.3429 50.7017 59.2541 50.6712 59.1749C50.6414 59.0952 50.596 59.0322 50.5352 58.9859C50.4749 58.939 50.3991 58.9156 50.3078 58.9156C50.2201 58.9156 50.1465 58.9378 50.0868 58.9822C50.0271 59.0261 49.9821 59.0876 49.9517 59.1667C49.9212 59.2452 49.906 59.3369 49.906 59.4416Z"
        fill="white" />
    <path
        d="M49.1063 58.7403C49.0954 58.6477 49.0509 58.5759 48.973 58.5248C48.8951 58.4736 48.7995 58.4481 48.6863 58.4481C48.6035 58.4481 48.531 58.4614 48.4689 58.4882C48.4075 58.515 48.3594 58.5518 48.3247 58.5987C48.2906 58.6456 48.2735 58.6989 48.2735 58.7585C48.2735 58.8084 48.2854 58.8514 48.3091 58.8873C48.3335 58.9226 48.3645 58.9521 48.4023 58.9759C48.44 58.999 48.4796 59.0182 48.521 59.0334C48.5624 59.048 48.6004 59.0599 48.6351 59.069L48.8251 59.1201C48.8738 59.1329 48.928 59.1506 48.9876 59.1731C49.0479 59.1956 49.1054 59.2264 49.1602 59.2653C49.2156 59.3037 49.2613 59.353 49.2972 59.4133C49.3331 59.4735 49.351 59.5475 49.351 59.6351C49.351 59.7362 49.3246 59.8275 49.2716 59.9091C49.2192 59.9907 49.1425 60.0555 49.0415 60.1036C48.941 60.1517 48.819 60.1757 48.6753 60.1757C48.5414 60.1757 48.4254 60.1541 48.3274 60.1109C48.23 60.0677 48.1533 60.0074 48.0973 59.9301C48.0419 59.8528 48.0105 59.763 48.0032 59.6607H48.237C48.2431 59.7313 48.2668 59.7898 48.3082 59.836C48.3502 59.8817 48.4032 59.9158 48.4671 59.9383C48.5316 59.9602 48.601 59.9712 48.6753 59.9712C48.7618 59.9712 48.8394 59.9572 48.9082 59.9292C48.977 59.9006 49.0314 59.861 49.0716 59.8105C49.1118 59.7593 49.1319 59.6997 49.1319 59.6315C49.1319 59.5694 49.1145 59.5189 49.0798 59.4799C49.0451 59.441 48.9995 59.4093 48.9429 59.3849C48.8863 59.3606 48.8251 59.3393 48.7593 59.321L48.5292 59.2553C48.3831 59.2133 48.2674 59.1533 48.1822 59.0754C48.097 58.9975 48.0544 58.8955 48.0544 58.7695C48.0544 58.6648 48.0827 58.5735 48.1393 58.4955C48.1965 58.417 48.2732 58.3561 48.3694 58.3129C48.4662 58.2691 48.5743 58.2472 48.6936 58.2472C48.8141 58.2472 48.9213 58.2688 49.015 58.312C49.1088 58.3546 49.183 58.4131 49.2378 58.4873C49.2932 58.5616 49.3224 58.6459 49.3255 58.7403H49.1063Z"
        fill="white" />
    <path
        d="M45.9286 59.7995C45.8549 59.7995 45.7877 59.7816 45.7268 59.7456C45.6659 59.7091 45.6172 59.6604 45.5807 59.5995C45.5448 59.5387 45.5268 59.4714 45.5268 59.3977C45.5268 59.3235 45.5448 59.2562 45.5807 59.1959C45.6172 59.135 45.6659 59.0866 45.7268 59.0507C45.7877 59.0142 45.8549 58.9959 45.9286 58.9959C46.0028 58.9959 46.0701 59.0142 46.1304 59.0507C46.1913 59.0866 46.2397 59.135 46.2756 59.1959C46.3121 59.2562 46.3304 59.3235 46.3304 59.3977C46.3304 59.4714 46.3121 59.5387 46.2756 59.5995C46.2397 59.6604 46.1913 59.7091 46.1304 59.7456C46.0701 59.7816 46.0028 59.7995 45.9286 59.7995Z"
        fill="white" />
    <path
        d="M64.0185 56.8117C63.982 56.8117 63.9494 56.8086 63.9208 56.8026C63.8922 56.7971 63.8724 56.7916 63.8615 56.7861L63.9162 56.5962C63.9686 56.6096 64.0149 56.6144 64.055 56.6108C64.0952 56.6071 64.1308 56.5892 64.1619 56.5569C64.1935 56.5253 64.2225 56.4738 64.2486 56.4026L64.2888 56.293L63.7701 54.8831H64.0039L64.3911 56.0008H64.4057L64.7929 54.8831H65.0266L64.4313 56.4903C64.4045 56.5627 64.3713 56.6227 64.3317 56.6702C64.2922 56.7182 64.2462 56.7539 64.1938 56.777C64.1421 56.8001 64.0837 56.8117 64.0185 56.8117Z"
        fill="white" />
    <path
        d="M62.6262 55.442V56.2857H62.4107V54.4156H62.6262V55.1023H62.6445C62.6773 55.0298 62.7267 54.9723 62.7924 54.9297C62.8588 54.8865 62.947 54.8649 63.0572 54.8649C63.1528 54.8649 63.2365 54.884 63.3083 54.9224C63.3802 54.9601 63.4359 55.0183 63.4754 55.0968C63.5156 55.1747 63.5357 55.2739 63.5357 55.3945V56.2857H63.3202V55.4091C63.3202 55.2977 63.2913 55.2115 63.2335 55.1507C63.1762 55.0892 63.0968 55.0584 62.9951 55.0584C62.9245 55.0584 62.8612 55.0734 62.8052 55.1032C62.7498 55.133 62.706 55.1765 62.6737 55.2338C62.642 55.291 62.6262 55.3604 62.6262 55.442Z"
        fill="white" />
    <path
        d="M62.0564 54.8831V55.0657H61.3295V54.8831H62.0564ZM61.5414 54.5471H61.7569V55.8839C61.7569 55.9448 61.7657 55.9905 61.7834 56.0209C61.8016 56.0507 61.8248 56.0708 61.8528 56.0812C61.8814 56.0909 61.9115 56.0958 61.9432 56.0958C61.9669 56.0958 61.9864 56.0946 62.0016 56.0921C62.0168 56.0891 62.029 56.0866 62.0381 56.0848L62.082 56.2784C62.0674 56.2839 62.047 56.2894 62.0208 56.2948C61.9946 56.3009 61.9614 56.304 61.9212 56.304C61.8604 56.304 61.8007 56.2909 61.7423 56.2647C61.6844 56.2385 61.6363 56.1987 61.598 56.1451C61.5603 56.0915 61.5414 56.0239 61.5414 55.9424V54.5471Z"
        fill="white" />
    <path
        d="M60.4102 56.3186C60.3213 56.3186 60.2407 56.3018 60.1682 56.2684C60.0958 56.2343 60.0382 56.1853 59.9956 56.1213C59.953 56.0568 59.9317 55.9789 59.9317 55.8876C59.9317 55.8072 59.9475 55.7421 59.9792 55.6922C60.0108 55.6416 60.0532 55.6021 60.1061 55.5735C60.1591 55.5448 60.2175 55.5235 60.2814 55.5095C60.346 55.4949 60.4108 55.4834 60.4759 55.4748C60.5612 55.4639 60.6303 55.4557 60.6832 55.4502C60.7368 55.4441 60.7758 55.434 60.8001 55.42C60.8251 55.406 60.8375 55.3817 60.8375 55.347V55.3397C60.8375 55.2496 60.8129 55.1796 60.7636 55.1297C60.7149 55.0797 60.6409 55.0548 60.5417 55.0548C60.4388 55.0548 60.3581 55.0773 60.2997 55.1224C60.2413 55.1674 60.2002 55.2155 60.1764 55.2666L59.9719 55.1936C60.0084 55.1084 60.0571 55.042 60.118 54.9945C60.1795 54.9464 60.2464 54.9129 60.3189 54.8941C60.3919 54.8746 60.4638 54.8649 60.5344 54.8649C60.5794 54.8649 60.6312 54.8703 60.6896 54.8813C60.7487 54.8916 60.8056 54.9132 60.8604 54.9461C60.9158 54.979 60.9617 55.0286 60.9983 55.095C61.0348 55.1613 61.053 55.2502 61.053 55.3616V56.2857H60.8375V56.0958H60.8266C60.812 56.1262 60.7876 56.1588 60.7535 56.1935C60.7194 56.2282 60.6741 56.2577 60.6175 56.2821C60.5609 56.3064 60.4918 56.3186 60.4102 56.3186ZM60.4431 56.125C60.5283 56.125 60.6001 56.1083 60.6586 56.0748C60.7176 56.0413 60.7621 55.9981 60.7919 55.9451C60.8223 55.8921 60.8375 55.8364 60.8375 55.778V55.5808C60.8284 55.5917 60.8083 55.6018 60.7773 55.6109C60.7468 55.6194 60.7115 55.627 60.6714 55.6337C60.6318 55.6398 60.5931 55.6453 60.5554 55.6502C60.5182 55.6544 60.4881 55.6581 60.465 55.6611C60.409 55.6684 60.3566 55.6803 60.3079 55.6967C60.2598 55.7126 60.2209 55.7366 60.191 55.7689C60.1618 55.8005 60.1472 55.8437 60.1472 55.8985C60.1472 55.9734 60.1749 56.03 60.2303 56.0684C60.2863 56.1061 60.3572 56.125 60.4431 56.125Z"
        fill="white" />
    <path
        d="M58.4305 56.8117V54.8831H58.6387V55.1059H58.6642C58.6801 55.0816 58.702 55.0505 58.73 55.0128C58.7586 54.9744 58.7994 54.9403 58.8524 54.9105C58.9059 54.8801 58.9784 54.8649 59.0697 54.8649C59.1878 54.8649 59.2919 54.8944 59.382 54.9534C59.4721 55.0125 59.5424 55.0962 59.5929 55.2045C59.6434 55.3129 59.6687 55.4407 59.6687 55.5881C59.6687 55.7366 59.6434 55.8654 59.5929 55.9743C59.5424 56.0827 59.4724 56.1667 59.3829 56.2264C59.2934 56.2854 59.1902 56.3149 59.0733 56.3149C58.9832 56.3149 58.9111 56.3 58.8569 56.2702C58.8027 56.2398 58.761 56.2054 58.7318 56.167C58.7026 56.128 58.6801 56.0958 58.6642 56.0702H58.646V56.8117H58.4305ZM58.6423 55.5844C58.6423 55.6903 58.6579 55.7838 58.6889 55.8648C58.7199 55.9451 58.7653 56.0081 58.825 56.0538C58.8846 56.0988 58.9577 56.1213 59.0441 56.1213C59.1342 56.1213 59.2094 56.0976 59.2697 56.0501C59.3305 56.002 59.3762 55.9375 59.4066 55.8565C59.4377 55.775 59.4532 55.6843 59.4532 55.5844C59.4532 55.4858 59.438 55.3969 59.4076 55.3178C59.3777 55.238 59.3324 55.175 59.2715 55.1288C59.2112 55.0819 59.1354 55.0584 59.0441 55.0584C58.9565 55.0584 58.8828 55.0807 58.8231 55.1251C58.7635 55.1689 58.7184 55.2304 58.688 55.3096C58.6576 55.3881 58.6423 55.4797 58.6423 55.5844Z"
        fill="white" />
    <path
        d="M57.466 56.3149C57.3394 56.3149 57.2283 56.2848 57.1327 56.2245C57.0377 56.1643 56.9635 56.08 56.9099 55.9716C56.8569 55.8632 56.8304 55.7366 56.8304 55.5917C56.8304 55.4456 56.8569 55.3181 56.9099 55.2091C56.9635 55.1001 57.0377 55.0155 57.1327 54.9553C57.2283 54.895 57.3394 54.8649 57.466 54.8649C57.5926 54.8649 57.7034 54.895 57.7984 54.9553C57.894 55.0155 57.9682 55.1001 58.0212 55.2091C58.0748 55.3181 58.1015 55.4456 58.1015 55.5917C58.1015 55.7366 58.0748 55.8632 58.0212 55.9716C57.9682 56.08 57.894 56.1643 57.7984 56.2245C57.7034 56.2848 57.5926 56.3149 57.466 56.3149ZM57.466 56.1213C57.5622 56.1213 57.6413 56.0967 57.7034 56.0474C57.7655 55.9981 57.8115 55.9332 57.8413 55.8529C57.8711 55.7725 57.886 55.6855 57.886 55.5917C57.886 55.498 57.8711 55.4106 57.8413 55.3296C57.8115 55.2487 57.7655 55.1832 57.7034 55.1333C57.6413 55.0834 57.5622 55.0584 57.466 55.0584C57.3698 55.0584 57.2907 55.0834 57.2286 55.1333C57.1665 55.1832 57.1205 55.2487 57.0907 55.3296C57.0609 55.4106 57.0459 55.498 57.0459 55.5917C57.0459 55.6855 57.0609 55.7725 57.0907 55.8529C57.1205 55.9332 57.1665 55.9981 57.2286 56.0474C57.2907 56.0967 57.3698 56.1213 57.466 56.1213Z"
        fill="white" />
    <path d="M56.5015 54.4156V56.2857H56.2859V54.4156H56.5015Z" fill="white" />
    <path
        d="M55.6757 55.7123V54.8831H55.8912V56.2857H55.6757V56.0483H55.6611C55.6283 56.1195 55.5771 56.1801 55.5077 56.23C55.4383 56.2793 55.3507 56.304 55.2447 56.304C55.1571 56.304 55.0791 56.2848 55.011 56.2464C54.9428 56.2075 54.8892 56.149 54.8503 56.0711C54.8113 55.9926 54.7918 55.8937 54.7918 55.7744V54.8831H55.0073V55.7597C55.0073 55.862 55.0359 55.9436 55.0931 56.0045C55.151 56.0653 55.2246 56.0958 55.3141 56.0958C55.3677 56.0958 55.4222 56.0821 55.4776 56.0547C55.5336 56.0273 55.5805 55.9853 55.6182 55.9287C55.6566 55.8721 55.6757 55.7999 55.6757 55.7123Z"
        fill="white" />
    <path
        d="M53.9253 56.3149C53.7938 56.3149 53.6806 56.2839 53.5856 56.2218C53.4906 56.1597 53.4176 56.0742 53.3664 55.9652C53.3153 55.8562 53.2897 55.7317 53.2897 55.5917C53.2897 55.4493 53.3159 55.3236 53.3683 55.2146C53.4212 55.105 53.4949 55.0195 53.5892 54.958C53.6842 54.8959 53.795 54.8649 53.9216 54.8649C54.0203 54.8649 54.1091 54.8831 54.1883 54.9196C54.2674 54.9562 54.3322 55.0073 54.3828 55.0731C54.4333 55.1388 54.4647 55.2155 54.4768 55.3032H54.2613C54.2449 55.2392 54.2084 55.1826 54.1517 55.1333C54.0957 55.0834 54.0203 55.0584 53.9253 55.0584C53.8413 55.0584 53.7676 55.0804 53.7043 55.1242C53.6416 55.1674 53.5926 55.2286 53.5573 55.3077C53.5226 55.3863 53.5052 55.4785 53.5052 55.5844C53.5052 55.6928 53.5223 55.7871 53.5564 55.8675C53.5911 55.9478 53.6398 56.0102 53.7025 56.0547C53.7658 56.0991 53.8401 56.1213 53.9253 56.1213C53.9813 56.1213 54.0321 56.1116 54.0778 56.0921C54.1234 56.0726 54.1621 56.0446 54.1938 56.0081C54.2254 55.9716 54.2479 55.9278 54.2613 55.8766H54.4768C54.4647 55.9594 54.4345 56.034 54.3864 56.1003C54.3389 56.1661 54.2759 56.2184 54.1974 56.2574C54.1195 56.2958 54.0288 56.3149 53.9253 56.3149Z"
        fill="white" />
    <path
        d="M52.7452 56.2857V54.8831H52.9608V56.2857H52.7452ZM52.8548 54.6494C52.8128 54.6494 52.7766 54.635 52.7462 54.6064C52.7163 54.5778 52.7014 54.5434 52.7014 54.5032C52.7014 54.4631 52.7163 54.4287 52.7462 54.4001C52.7766 54.3714 52.8128 54.3571 52.8548 54.3571C52.8968 54.3571 52.9327 54.3714 52.9626 54.4001C52.993 54.4287 53.0082 54.4631 53.0082 54.5032C53.0082 54.5434 52.993 54.5778 52.9626 54.6064C52.9327 54.635 52.8968 54.6494 52.8548 54.6494Z"
        fill="white" />
    <path
        d="M51.6778 56.3149C51.5609 56.3149 51.4577 56.2854 51.3682 56.2264C51.2787 56.1667 51.2087 56.0827 51.1582 55.9743C51.1077 55.8654 51.0824 55.7366 51.0824 55.5881C51.0824 55.4407 51.1077 55.3129 51.1582 55.2045C51.2087 55.0962 51.279 55.0125 51.3691 54.9534C51.4592 54.8944 51.5633 54.8649 51.6814 54.8649C51.7727 54.8649 51.8449 54.8801 51.8978 54.9105C51.9514 54.9403 51.9922 54.9744 52.0202 55.0128C52.0488 55.0505 52.071 55.0816 52.0869 55.1059H52.1051V54.4156H52.3206V56.2857H52.1124V56.0702H52.0869C52.071 56.0958 52.0485 56.128 52.0193 56.167C51.9901 56.2054 51.9484 56.2398 51.8942 56.2702C51.84 56.3 51.7679 56.3149 51.6778 56.3149ZM51.707 56.1213C51.7934 56.1213 51.8665 56.0988 51.9261 56.0538C51.9858 56.0081 52.0312 55.9451 52.0622 55.8648C52.0933 55.7838 52.1088 55.6903 52.1088 55.5844C52.1088 55.4797 52.0936 55.3881 52.0631 55.3096C52.0327 55.2304 51.9876 55.1689 51.928 55.1251C51.8683 55.0807 51.7947 55.0584 51.707 55.0584C51.6157 55.0584 51.5396 55.0819 51.4787 55.1288C51.4184 55.175 51.3731 55.238 51.3426 55.3178C51.3128 55.3969 51.2979 55.4858 51.2979 55.5844C51.2979 55.6843 51.3131 55.775 51.3436 55.8565C51.3746 55.9375 51.4203 56.002 51.4805 56.0501C51.5414 56.0976 51.6169 56.1213 51.707 56.1213Z"
        fill="white" />
    <path
        d="M50.112 56.3186C50.0231 56.3186 49.9424 56.3018 49.87 56.2684C49.7975 56.2343 49.74 56.1853 49.6974 56.1213C49.6548 56.0568 49.6335 55.9789 49.6335 55.8876C49.6335 55.8072 49.6493 55.7421 49.681 55.6922C49.7126 55.6416 49.7549 55.6021 49.8079 55.5735C49.8609 55.5448 49.9193 55.5235 49.9832 55.5095C50.0477 55.4949 50.1126 55.4834 50.1777 55.4748C50.2629 55.4639 50.332 55.4557 50.385 55.4502C50.4386 55.4441 50.4775 55.434 50.5019 55.42C50.5268 55.406 50.5393 55.3817 50.5393 55.347V55.3397C50.5393 55.2496 50.5147 55.1796 50.4654 55.1297C50.4167 55.0797 50.3427 55.0548 50.2435 55.0548C50.1406 55.0548 50.0599 55.0773 50.0015 55.1224C49.943 55.1674 49.9019 55.2155 49.8782 55.2666L49.6737 55.1936C49.7102 55.1084 49.7589 55.042 49.8198 54.9945C49.8813 54.9464 49.9482 54.9129 50.0207 54.8941C50.0937 54.8746 50.1655 54.8649 50.2362 54.8649C50.2812 54.8649 50.333 54.8703 50.3914 54.8813C50.4504 54.8916 50.5074 54.9132 50.5622 54.9461C50.6176 54.979 50.6635 55.0286 50.7 55.095C50.7366 55.1613 50.7548 55.2502 50.7548 55.3616V56.2857H50.5393V56.0958H50.5284C50.5138 56.1262 50.4894 56.1588 50.4553 56.1935C50.4212 56.2282 50.3759 56.2577 50.3193 56.2821C50.2626 56.3064 50.1935 56.3186 50.112 56.3186ZM50.1448 56.125C50.2301 56.125 50.3019 56.1083 50.3604 56.0748C50.4194 56.0413 50.4638 55.9981 50.4937 55.9451C50.5241 55.8921 50.5393 55.8364 50.5393 55.778V55.5808C50.5302 55.5917 50.5101 55.6018 50.4791 55.6109C50.4486 55.6194 50.4133 55.627 50.3731 55.6337C50.3336 55.6398 50.2949 55.6453 50.2572 55.6502C50.22 55.6544 50.1899 55.6581 50.1668 55.6611C50.1108 55.6684 50.0584 55.6803 50.0097 55.6967C49.9616 55.7126 49.9226 55.7366 49.8928 55.7689C49.8636 55.8005 49.849 55.8437 49.849 55.8985C49.849 55.9734 49.8767 56.03 49.9321 56.0684C49.9881 56.1061 50.059 56.125 50.1448 56.125Z"
        fill="white" />
    <path
        d="M48.0836 56.2857V54.4156H48.7155C48.8616 54.4156 48.9815 54.4405 49.0753 54.4905C49.169 54.5398 49.2384 54.6077 49.2835 54.6941C49.3285 54.7805 49.3511 54.8789 49.3511 54.989C49.3511 55.0992 49.3285 55.1969 49.2835 55.2822C49.2384 55.3674 49.1694 55.4344 49.0762 55.4831C48.9831 55.5311 48.8641 55.5552 48.7192 55.5552H48.2078V55.3506H48.7119C48.8117 55.3506 48.8921 55.336 48.9529 55.3068C49.0144 55.2776 49.0589 55.2362 49.0863 55.1826C49.1143 55.1284 49.1283 55.0639 49.1283 54.989C49.1283 54.9142 49.1143 54.8487 49.0863 54.7927C49.0583 54.7367 49.0135 54.6935 48.952 54.663C48.8905 54.632 48.8093 54.6165 48.7082 54.6165H48.3101V56.2857H48.0836ZM48.9639 55.4456L49.4241 56.2857H49.1611L48.7082 55.4456H48.9639Z"
        fill="white" />
    <path
        d="M64.5678 53.2857V51.8831H64.776V52.095H64.7906C64.8162 52.0256 64.8625 51.9693 64.9294 51.926C64.9964 51.8828 65.0719 51.8612 65.1559 51.8612C65.1717 51.8612 65.1915 51.8615 65.2152 51.8621C65.239 51.8627 65.2569 51.8636 65.2691 51.8649V52.084C65.2618 52.0822 65.2451 52.0794 65.2189 52.0758C65.1933 52.0715 65.1662 52.0694 65.1376 52.0694C65.0694 52.0694 65.0086 52.0837 64.955 52.1123C64.902 52.1403 64.86 52.1793 64.829 52.2292C64.7985 52.2785 64.7833 52.3348 64.7833 52.3981V53.2857H64.5678Z"
        fill="white" />
    <path
        d="M63.6033 53.3149C63.4766 53.3149 63.3655 53.2848 63.27 53.2245C63.175 53.1643 63.1007 53.08 63.0472 52.9716C62.9942 52.8632 62.9677 52.7366 62.9677 52.5917C62.9677 52.4456 62.9942 52.3181 63.0472 52.2091C63.1007 52.1001 63.175 52.0155 63.27 51.9553C63.3655 51.895 63.4766 51.8649 63.6033 51.8649C63.7299 51.8649 63.8407 51.895 63.9357 51.9553C64.0312 52.0155 64.1055 52.1001 64.1585 52.2091C64.212 52.3181 64.2388 52.4456 64.2388 52.5917C64.2388 52.7366 64.212 52.8632 64.1585 52.9716C64.1055 53.08 64.0312 53.1643 63.9357 53.2245C63.8407 53.2848 63.7299 53.3149 63.6033 53.3149ZM63.6033 53.1213C63.6995 53.1213 63.7786 53.0967 63.8407 53.0474C63.9028 52.9981 63.9487 52.9332 63.9786 52.8529C64.0084 52.7725 64.0233 52.6855 64.0233 52.5917C64.0233 52.498 64.0084 52.4106 63.9786 52.3296C63.9487 52.2487 63.9028 52.1832 63.8407 52.1333C63.7786 52.0834 63.6995 52.0584 63.6033 52.0584C63.5071 52.0584 63.4279 52.0834 63.3658 52.1333C63.3038 52.1832 63.2578 52.2487 63.228 52.3296C63.1981 52.4106 63.1832 52.498 63.1832 52.5917C63.1832 52.6855 63.1981 52.7725 63.228 52.8529C63.2578 52.9332 63.3038 52.9981 63.3658 53.0474C63.4279 53.0967 63.5071 53.1213 63.6033 53.1213Z"
        fill="white" />
    <path
        d="M61.0177 53.8117C60.9811 53.8117 60.9486 53.8086 60.92 53.8026C60.8913 53.7971 60.8716 53.7916 60.8606 53.7861L60.9154 53.5962C60.9677 53.6096 61.014 53.6144 61.0542 53.6108C61.0944 53.6071 61.13 53.5892 61.161 53.5569C61.1927 53.5253 61.2216 53.4738 61.2478 53.4026L61.288 53.293L60.7693 51.8831H61.0031L61.3902 53.0008H61.4048L61.792 51.8831H62.0258L61.4304 53.4903C61.4036 53.5627 61.3704 53.6227 61.3309 53.6702C61.2913 53.7182 61.2453 53.7539 61.193 53.777C61.1412 53.8001 61.0828 53.8117 61.0177 53.8117Z"
        fill="white" />
    <path
        d="M59.6254 52.442V53.2857H59.4099V51.4156H59.6254V52.1023H59.6436C59.6765 52.0298 59.7258 51.9723 59.7915 51.9297C59.8579 51.8865 59.9462 51.8649 60.0564 51.8649C60.1519 51.8649 60.2356 51.884 60.3075 51.9224C60.3793 51.9601 60.435 52.0183 60.4746 52.0968C60.5148 52.1747 60.5349 52.2739 60.5349 52.3945V53.2857H60.3193V52.4091C60.3193 52.2977 60.2904 52.2115 60.2326 52.1507C60.1754 52.0892 60.0959 52.0584 59.9943 52.0584C59.9237 52.0584 59.8603 52.0734 59.8043 52.1032C59.7489 52.133 59.7051 52.1765 59.6728 52.2338C59.6412 52.291 59.6254 52.3604 59.6254 52.442Z"
        fill="white" />
    <path
        d="M59.0555 51.8831V52.0657H58.3287V51.8831H59.0555ZM58.5405 51.5471H58.756V52.8839C58.756 52.9448 58.7649 52.9905 58.7825 53.0209C58.8008 53.0507 58.8239 53.0708 58.8519 53.0812C58.8805 53.0909 58.9107 53.0958 58.9423 53.0958C58.9661 53.0958 58.9855 53.0946 59.0008 53.0921C59.016 53.0891 59.0281 53.0866 59.0373 53.0848L59.0811 53.2784C59.0665 53.2839 59.0461 53.2894 59.0199 53.2948C58.9938 53.3009 58.9606 53.304 58.9204 53.304C58.8595 53.304 58.7999 53.2909 58.7414 53.2647C58.6836 53.2385 58.6355 53.1987 58.5971 53.1451C58.5594 53.0915 58.5405 53.0239 58.5405 52.9424V51.5471Z"
        fill="white" />
    <path
        d="M57.4094 53.3186C57.3205 53.3186 57.2399 53.3018 57.1674 53.2684C57.095 53.2343 57.0374 53.1853 56.9948 53.1213C56.9522 53.0568 56.9309 52.9789 56.9309 52.8876C56.9309 52.8072 56.9467 52.7421 56.9784 52.6922C57.01 52.6416 57.0524 52.6021 57.1053 52.5735C57.1583 52.5448 57.2167 52.5235 57.2806 52.5095C57.3452 52.4949 57.41 52.4834 57.4751 52.4748C57.5604 52.4639 57.6295 52.4557 57.6824 52.4502C57.736 52.4441 57.775 52.434 57.7993 52.42C57.8243 52.406 57.8368 52.3817 57.8368 52.347V52.3397C57.8368 52.2496 57.8121 52.1796 57.7628 52.1297C57.7141 52.0797 57.6401 52.0548 57.5409 52.0548C57.438 52.0548 57.3573 52.0773 57.2989 52.1224C57.2405 52.1674 57.1994 52.2155 57.1756 52.2666L56.9711 52.1936C57.0076 52.1084 57.0563 52.042 57.1172 51.9945C57.1787 51.9464 57.2456 51.9129 57.3181 51.8941C57.3911 51.8746 57.463 51.8649 57.5336 51.8649C57.5786 51.8649 57.6304 51.8703 57.6888 51.8813C57.7479 51.8916 57.8048 51.9132 57.8596 51.9461C57.915 51.979 57.9609 52.0286 57.9975 52.095C58.034 52.1613 58.0523 52.2502 58.0523 52.3616V53.2857H57.8368V53.0958H57.8258C57.8112 53.1262 57.7868 53.1588 57.7527 53.1935C57.7187 53.2282 57.6733 53.2577 57.6167 53.2821C57.5601 53.3064 57.491 53.3186 57.4094 53.3186ZM57.4423 53.125C57.5275 53.125 57.5993 53.1083 57.6578 53.0748C57.7168 53.0413 57.7613 52.9981 57.7911 52.9451C57.8215 52.8921 57.8368 52.8364 57.8368 52.778V52.5808C57.8276 52.5917 57.8075 52.6018 57.7765 52.6109C57.746 52.6194 57.7107 52.627 57.6706 52.6337C57.631 52.6398 57.5923 52.6453 57.5546 52.6502C57.5175 52.6544 57.4873 52.6581 57.4642 52.6611C57.4082 52.6684 57.3558 52.6803 57.3071 52.6967C57.259 52.7126 57.2201 52.7366 57.1902 52.7689C57.161 52.8005 57.1464 52.8437 57.1464 52.8985C57.1464 52.9734 57.1741 53.03 57.2295 53.0684C57.2855 53.1061 57.3564 53.125 57.4423 53.125Z"
        fill="white" />
    <path
        d="M55.4297 53.8117V51.8831H55.6379V52.1059H55.6635C55.6793 52.0816 55.7012 52.0505 55.7292 52.0128C55.7578 51.9744 55.7986 51.9403 55.8516 51.9105C55.9051 51.8801 55.9776 51.8649 56.0689 51.8649C56.187 51.8649 56.2911 51.8944 56.3812 51.9534C56.4713 52.0125 56.5416 52.0962 56.5921 52.2045C56.6427 52.3129 56.6679 52.4407 56.6679 52.5881C56.6679 52.7366 56.6427 52.8654 56.5921 52.9743C56.5416 53.0827 56.4716 53.1667 56.3821 53.2264C56.2926 53.2854 56.1894 53.3149 56.0725 53.3149C55.9824 53.3149 55.9103 53.3 55.8561 53.2702C55.8019 53.2398 55.7602 53.2054 55.731 53.167C55.7018 53.128 55.6793 53.0958 55.6635 53.0702H55.6452V53.8117H55.4297ZM55.6415 52.5844C55.6415 52.6903 55.6571 52.7838 55.6881 52.8648C55.7192 52.9451 55.7645 53.0081 55.8242 53.0538C55.8838 53.0988 55.9569 53.1213 56.0433 53.1213C56.1334 53.1213 56.2086 53.0976 56.2689 53.0501C56.3297 53.002 56.3754 52.9375 56.4058 52.8565C56.4369 52.775 56.4524 52.6843 56.4524 52.5844C56.4524 52.4858 56.4372 52.3969 56.4068 52.3178C56.3769 52.238 56.3316 52.175 56.2707 52.1288C56.2104 52.0819 56.1346 52.0584 56.0433 52.0584C55.9557 52.0584 55.882 52.0807 55.8223 52.1251C55.7627 52.1689 55.7176 52.2304 55.6872 52.3096C55.6568 52.3881 55.6415 52.4797 55.6415 52.5844Z"
        fill="white" />
    <path
        d="M54.4651 53.3149C54.3385 53.3149 54.2274 53.2848 54.1318 53.2245C54.0369 53.1643 53.9626 53.08 53.909 52.9716C53.8561 52.8632 53.8296 52.7366 53.8296 52.5917C53.8296 52.4456 53.8561 52.3181 53.909 52.2091C53.9626 52.1001 54.0369 52.0155 54.1318 51.9553C54.2274 51.895 54.3385 51.8649 54.4651 51.8649C54.5918 51.8649 54.7026 51.895 54.7975 51.9553C54.8931 52.0155 54.9674 52.1001 55.0203 52.2091C55.0739 52.3181 55.1007 52.4456 55.1007 52.5917C55.1007 52.7366 55.0739 52.8632 55.0203 52.9716C54.9674 53.08 54.8931 53.1643 54.7975 53.2245C54.7026 53.2848 54.5918 53.3149 54.4651 53.3149ZM54.4651 53.1213C54.5613 53.1213 54.6405 53.0967 54.7026 53.0474C54.7647 52.9981 54.8106 52.9332 54.8404 52.8529C54.8703 52.7725 54.8852 52.6855 54.8852 52.5917C54.8852 52.498 54.8703 52.4106 54.8404 52.3296C54.8106 52.2487 54.7647 52.1832 54.7026 52.1333C54.6405 52.0834 54.5613 52.0584 54.4651 52.0584C54.369 52.0584 54.2898 52.0834 54.2277 52.1333C54.1656 52.1832 54.1197 52.2487 54.0898 52.3296C54.06 52.4106 54.0451 52.498 54.0451 52.5917C54.0451 52.6855 54.06 52.7725 54.0898 52.8529C54.1197 52.9332 54.1656 52.9981 54.2277 53.0474C54.2898 53.0967 54.369 53.1213 54.4651 53.1213Z"
        fill="white" />
    <path
        d="M52.9813 53.2857V51.8831H53.1895V52.095H53.2041C53.2296 52.0256 53.2759 51.9693 53.3429 51.926C53.4098 51.8828 53.4853 51.8612 53.5693 51.8612C53.5852 51.8612 53.6049 51.8615 53.6287 51.8621C53.6524 51.8627 53.6704 51.8636 53.6826 51.8649V52.084C53.6753 52.0822 53.6585 52.0794 53.6323 52.0758C53.6068 52.0715 53.5797 52.0694 53.5511 52.0694C53.4829 52.0694 53.422 52.0837 53.3684 52.1123C53.3155 52.1403 53.2735 52.1793 53.2424 52.2292C53.212 52.2785 53.1968 52.3348 53.1968 52.3981V53.2857H52.9813Z"
        fill="white" />
    <path
        d="M52.371 52.7123V51.8831H52.5866V53.2857H52.371V53.0483H52.3564C52.3236 53.1195 52.2724 53.1801 52.203 53.23C52.1336 53.2793 52.046 53.304 51.94 53.304C51.8524 53.304 51.7745 53.2848 51.7063 53.2464C51.6381 53.2075 51.5845 53.149 51.5456 53.0711C51.5066 52.9926 51.4871 52.8937 51.4871 52.7744V51.8831H51.7026V52.7597C51.7026 52.862 51.7312 52.9436 51.7885 53.0045C51.8463 53.0653 51.92 53.0958 52.0094 53.0958C52.063 53.0958 52.1175 53.0821 52.1729 53.0547C52.2289 53.0273 52.2758 52.9853 52.3135 52.9287C52.3519 52.8721 52.371 52.7999 52.371 52.7123Z"
        fill="white" />
    <path
        d="M50.5786 53.3149C50.4434 53.3149 50.3268 53.2851 50.2288 53.2254C50.1314 53.1652 50.0562 53.0812 50.0033 52.9734C49.9509 52.8651 49.9247 52.739 49.9247 52.5954C49.9247 52.4517 49.9509 52.3251 50.0033 52.2155C50.0562 52.1053 50.1299 52.0195 50.2243 51.958C50.3192 51.8959 50.43 51.8649 50.5566 51.8649C50.6297 51.8649 50.7018 51.877 50.7731 51.9014C50.8443 51.9257 50.9091 51.9653 50.9676 52.0201C51.026 52.0743 51.0726 52.1461 51.1073 52.2356C51.142 52.3251 51.1593 52.4353 51.1593 52.5662V52.6575H50.0782V52.4712H50.9402C50.9402 52.392 50.9243 52.3214 50.8927 52.2593C50.8616 52.1972 50.8172 52.1482 50.7594 52.1123C50.7021 52.0764 50.6346 52.0584 50.5566 52.0584C50.4708 52.0584 50.3965 52.0797 50.3338 52.1224C50.2717 52.1644 50.224 52.2192 50.1905 52.2867C50.157 52.3543 50.1402 52.4267 50.1402 52.5041V52.6282C50.1402 52.7342 50.1585 52.824 50.195 52.8976C50.2322 52.9707 50.2836 53.0264 50.3494 53.0647C50.4151 53.1025 50.4915 53.1213 50.5786 53.1213C50.6352 53.1213 50.6863 53.1134 50.732 53.0976C50.7782 53.0812 50.8181 53.0568 50.8516 53.0246C50.8851 52.9917 50.9109 52.9509 50.9292 52.9022L51.1374 52.9606C51.1155 53.0312 51.0787 53.0933 51.0269 53.1469C50.9752 53.1999 50.9112 53.2413 50.8352 53.2711C50.7591 53.3003 50.6735 53.3149 50.5786 53.3149Z"
        fill="white" />
    <path
        d="M49.5666 51.4156V53.2857H49.3474L48.3283 51.8174H48.3101V53.2857H48.0836V51.4156H48.3028L49.3255 52.8876H49.3438V51.4156H49.5666Z"
        fill="white" />
    <path
        d="M45.9286 52.9424C45.8549 52.9424 45.7877 52.9244 45.7268 52.8885C45.6659 52.852 45.6172 52.8033 45.5807 52.7424C45.5448 52.6815 45.5268 52.6142 45.5268 52.5406C45.5268 52.4663 45.5448 52.399 45.5807 52.3388C45.6172 52.2779 45.6659 52.2295 45.7268 52.1936C45.7877 52.1571 45.8549 52.1388 45.9286 52.1388C46.0028 52.1388 46.0701 52.1571 46.1304 52.1936C46.1913 52.2295 46.2397 52.2779 46.2756 52.3388C46.3121 52.399 46.3304 52.4663 46.3304 52.5406C46.3304 52.6142 46.3121 52.6815 46.2756 52.7424C46.2397 52.8033 46.1913 52.852 46.1304 52.8885C46.0701 52.9244 46.0028 52.9424 45.9286 52.9424Z"
        fill="white" />
    <path
        d="M63.2825 49.4578C63.1474 49.4578 63.0308 49.428 62.9328 49.3683C62.8354 49.308 62.7602 49.224 62.7073 49.1163C62.6549 49.0079 62.6287 48.8819 62.6287 48.7382C62.6287 48.5946 62.6549 48.4679 62.7073 48.3584C62.7602 48.2482 62.8339 48.1623 62.9282 48.1009C63.0232 48.0388 63.134 48.0077 63.2606 48.0077C63.3337 48.0077 63.4058 48.0199 63.477 48.0442C63.5483 48.0686 63.6131 48.1082 63.6715 48.1629C63.73 48.2171 63.7766 48.289 63.8113 48.3784C63.846 48.4679 63.8633 48.5781 63.8633 48.709V48.8003H62.7821V48.614H63.6441C63.6441 48.5349 63.6283 48.4643 63.5967 48.4022C63.5656 48.3401 63.5212 48.2911 63.4633 48.2552C63.4061 48.2193 63.3385 48.2013 63.2606 48.2013C63.1748 48.2013 63.1005 48.2226 63.0378 48.2652C62.9757 48.3072 62.9279 48.362 62.8945 48.4296C62.861 48.4972 62.8442 48.5696 62.8442 48.6469V48.7711C62.8442 48.877 62.8625 48.9668 62.899 49.0405C62.9362 49.1135 62.9876 49.1692 63.0533 49.2076C63.1191 49.2453 63.1955 49.2642 63.2825 49.2642C63.3392 49.2642 63.3903 49.2563 63.4359 49.2405C63.4822 49.224 63.5221 49.1997 63.5556 49.1674C63.5891 49.1345 63.6149 49.0937 63.6332 49.045L63.8414 49.1035C63.8195 49.1741 63.7826 49.2362 63.7309 49.2898C63.6792 49.3427 63.6152 49.3841 63.5391 49.414C63.463 49.4432 63.3775 49.4578 63.2825 49.4578Z"
        fill="white" />
    <path
        d="M61.7804 49.4286V48.026H61.9886V48.2378H62.0032C62.0288 48.1684 62.075 48.1121 62.142 48.0689C62.209 48.0257 62.2845 48.0041 62.3685 48.0041C62.3843 48.0041 62.4041 48.0044 62.4278 48.005C62.4516 48.0056 62.4695 48.0065 62.4817 48.0077V48.2269C62.4744 48.225 62.4576 48.2223 62.4315 48.2186C62.4059 48.2144 62.3788 48.2123 62.3502 48.2123C62.282 48.2123 62.2211 48.2266 62.1676 48.2552C62.1146 48.2832 62.0726 48.3221 62.0416 48.3721C62.0111 48.4214 61.9959 48.4777 61.9959 48.541V49.4286H61.7804Z"
        fill="white" />
    <path
        d="M61.1702 48.8551V48.026H61.3857V49.4286H61.1702V49.1912H61.1556C61.1227 49.2624 61.0716 49.323 61.0022 49.3729C60.9328 49.4222 60.8451 49.4468 60.7392 49.4468C60.6515 49.4468 60.5736 49.4277 60.5054 49.3893C60.4372 49.3503 60.3837 49.2919 60.3447 49.214C60.3057 49.1355 60.2863 49.0365 60.2863 48.9172V48.026H60.5018V48.9026C60.5018 49.0049 60.5304 49.0864 60.5876 49.1473C60.6454 49.2082 60.7191 49.2386 60.8086 49.2386C60.8621 49.2386 60.9166 49.2249 60.972 49.1975C61.028 49.1702 61.0749 49.1281 61.1127 49.0715C61.151 49.0149 61.1702 48.9428 61.1702 48.8551Z"
        fill="white" />
    <path
        d="M59.9621 48.026V48.2086H59.2352V48.026H59.9621ZM59.4471 47.6899H59.6626V49.0268C59.6626 49.0877 59.6714 49.1333 59.6891 49.1638C59.7073 49.1936 59.7305 49.2137 59.7585 49.224C59.7871 49.2338 59.8172 49.2386 59.8489 49.2386C59.8726 49.2386 59.8921 49.2374 59.9073 49.235C59.9225 49.2319 59.9347 49.2295 59.9438 49.2277L59.9877 49.4213C59.9731 49.4267 59.9527 49.4322 59.9265 49.4377C59.9003 49.4438 59.8671 49.4468 59.827 49.4468C59.7661 49.4468 59.7064 49.4337 59.648 49.4076C59.5901 49.3814 59.542 49.3415 59.5037 49.2879C59.466 49.2344 59.4471 49.1668 59.4471 49.0852V47.6899Z"
        fill="white" />
    <path
        d="M58.4855 49.4578C58.354 49.4578 58.2408 49.4267 58.1458 49.3646C58.0509 49.3026 57.9778 49.217 57.9267 49.1081C57.8755 48.9991 57.85 48.8746 57.85 48.7346C57.85 48.5921 57.8762 48.4664 57.9285 48.3574C57.9815 48.2479 58.0551 48.1623 58.1495 48.1009C58.2445 48.0388 58.3553 48.0077 58.4819 48.0077C58.5805 48.0077 58.6694 48.026 58.7485 48.0625C58.8277 48.099 58.8925 48.1502 58.943 48.2159C58.9935 48.2817 59.0249 48.3584 59.0371 48.446H58.8216C58.8051 48.3821 58.7686 48.3255 58.712 48.2762C58.656 48.2263 58.5805 48.2013 58.4855 48.2013C58.4015 48.2013 58.3279 48.2232 58.2645 48.267C58.2018 48.3103 58.1528 48.3714 58.1175 48.4506C58.0828 48.5291 58.0655 48.6213 58.0655 48.7273C58.0655 48.8356 58.0825 48.93 58.1166 49.0103C58.1513 49.0907 58.2 49.1531 58.2627 49.1975C58.326 49.242 58.4003 49.2642 58.4855 49.2642C58.5415 49.2642 58.5924 49.2545 58.638 49.235C58.6837 49.2155 58.7223 49.1875 58.754 49.151C58.7856 49.1144 58.8082 49.0706 58.8216 49.0195H59.0371C59.0249 49.1023 58.9948 49.1768 58.9467 49.2432C58.8992 49.3089 58.8362 49.3613 58.7576 49.4003C58.6797 49.4386 58.589 49.4578 58.4855 49.4578Z"
        fill="white" />
    <path
        d="M56.8796 49.4614C56.7907 49.4614 56.71 49.4447 56.6376 49.4112C56.5651 49.3771 56.5076 49.3281 56.465 49.2642C56.4224 49.1997 56.4011 49.1218 56.4011 49.0304C56.4011 48.9501 56.4169 48.8849 56.4485 48.835C56.4802 48.7845 56.5225 48.7449 56.5755 48.7163C56.6284 48.6877 56.6869 48.6664 56.7508 48.6524C56.8153 48.6378 56.8802 48.6262 56.9453 48.6177C57.0305 48.6067 57.0996 48.5985 57.1526 48.593C57.2062 48.587 57.2451 48.5769 57.2695 48.5629C57.2944 48.5489 57.3069 48.5246 57.3069 48.4899V48.4825C57.3069 48.3924 57.2823 48.3224 57.2329 48.2725C57.1842 48.2226 57.1103 48.1976 57.011 48.1976C56.9082 48.1976 56.8275 48.2202 56.7691 48.2652C56.7106 48.3103 56.6695 48.3584 56.6458 48.4095L56.4412 48.3364C56.4778 48.2512 56.5265 48.1849 56.5873 48.1374C56.6488 48.0893 56.7158 48.0558 56.7882 48.0369C56.8613 48.0174 56.9331 48.0077 57.0037 48.0077C57.0488 48.0077 57.1005 48.0132 57.159 48.0241C57.218 48.0345 57.2749 48.0561 57.3297 48.089C57.3851 48.1219 57.4311 48.1715 57.4676 48.2378C57.5041 48.3042 57.5224 48.3931 57.5224 48.5045V49.4286H57.3069V49.2386H57.2959C57.2813 49.2691 57.257 49.3016 57.2229 49.3363C57.1888 49.371 57.1435 49.4006 57.0868 49.4249C57.0302 49.4493 56.9611 49.4614 56.8796 49.4614ZM56.9124 49.2679C56.9977 49.2679 57.0695 49.2511 57.1279 49.2176C57.187 49.1842 57.2314 49.1409 57.2612 49.088C57.2917 49.035 57.3069 48.9793 57.3069 48.9209V48.7236C57.2978 48.7346 57.2777 48.7446 57.2466 48.7538C57.2162 48.7623 57.1809 48.7699 57.1407 48.7766C57.1011 48.7827 57.0625 48.7881 57.0247 48.793C56.9876 48.7973 56.9575 48.8009 56.9343 48.804C56.8783 48.8113 56.826 48.8232 56.7773 48.8396C56.7292 48.8554 56.6902 48.8795 56.6604 48.9117C56.6312 48.9434 56.6166 48.9866 56.6166 49.0414C56.6166 49.1163 56.6443 49.1729 56.6997 49.2112C56.7557 49.249 56.8266 49.2679 56.9124 49.2679Z"
        fill="white" />
    <path
        d="M55.51 49.4286V48.026H55.7182V48.2378H55.7328C55.7584 48.1684 55.8047 48.1121 55.8716 48.0689C55.9386 48.0257 56.0141 48.0041 56.0981 48.0041C56.1139 48.0041 56.1337 48.0044 56.1574 48.005C56.1812 48.0056 56.1991 48.0065 56.2113 48.0077V48.2269C56.204 48.225 56.1873 48.2223 56.1611 48.2186C56.1355 48.2144 56.1084 48.2123 56.0798 48.2123C56.0116 48.2123 55.9508 48.2266 55.8972 48.2552C55.8442 48.2832 55.8022 48.3221 55.7712 48.3721C55.7407 48.4214 55.7255 48.4777 55.7255 48.541V49.4286H55.51Z"
        fill="white" />
    <path d="M54.0451 49.4286V47.5584H55.1665V47.7593H54.2716V48.3912H55.0824V48.5921H54.2716V49.4286H54.0451Z"
        fill="white" />
    <path
        d="M52.4261 49.4578C52.2946 49.4578 52.1814 49.4267 52.0864 49.3646C51.9914 49.3026 51.9184 49.217 51.8672 49.1081C51.8161 48.9991 51.7905 48.8746 51.7905 48.7346C51.7905 48.5921 51.8167 48.4664 51.8691 48.3574C51.922 48.2479 51.9957 48.1623 52.09 48.1009C52.185 48.0388 52.2958 48.0077 52.4224 48.0077C52.521 48.0077 52.6099 48.026 52.6891 48.0625C52.7682 48.099 52.833 48.1502 52.8836 48.2159C52.9341 48.2817 52.9654 48.3584 52.9776 48.446H52.7621C52.7457 48.3821 52.7092 48.3255 52.6525 48.2762C52.5965 48.2263 52.521 48.2013 52.4261 48.2013C52.3421 48.2013 52.2684 48.2232 52.2051 48.267C52.1424 48.3103 52.0934 48.3714 52.0581 48.4506C52.0234 48.5291 52.006 48.6213 52.006 48.7273C52.006 48.8356 52.0231 48.93 52.0572 49.0103C52.0919 49.0907 52.1406 49.1531 52.2033 49.1975C52.2666 49.242 52.3409 49.2642 52.4261 49.2642C52.4821 49.2642 52.5329 49.2545 52.5786 49.235C52.6242 49.2155 52.6629 49.1875 52.6945 49.151C52.7262 49.1144 52.7487 49.0706 52.7621 49.0195H52.9776C52.9654 49.1023 52.9353 49.1768 52.8872 49.2432C52.8397 49.3089 52.7767 49.3613 52.6982 49.4003C52.6203 49.4386 52.5296 49.4578 52.4261 49.4578Z"
        fill="white" />
    <path
        d="M51.5063 48.3401L51.3128 48.3949C51.3006 48.3626 51.2826 48.3313 51.2589 48.3008C51.2357 48.2698 51.2041 48.2442 51.1639 48.2241C51.1237 48.204 51.0723 48.194 51.0096 48.194C50.9238 48.194 50.8522 48.2138 50.795 48.2533C50.7384 48.2923 50.7101 48.3419 50.7101 48.4022C50.7101 48.4558 50.7296 48.4981 50.7685 48.5291C50.8075 48.5602 50.8684 48.586 50.9512 48.6067L51.1593 48.6579C51.2848 48.6883 51.3782 48.7349 51.4397 48.7976C51.5012 48.8597 51.5319 48.9397 51.5319 49.0377C51.5319 49.1181 51.5088 49.1899 51.4625 49.2532C51.4169 49.3166 51.3529 49.3665 51.2708 49.403C51.1886 49.4395 51.093 49.4578 50.984 49.4578C50.841 49.4578 50.7226 49.4267 50.6288 49.3646C50.5351 49.3026 50.4757 49.2118 50.4507 49.0925L50.6553 49.0414C50.6748 49.1169 50.7116 49.1735 50.7658 49.2112C50.8206 49.249 50.8921 49.2679 50.9804 49.2679C51.0808 49.2679 51.1606 49.2465 51.2196 49.2039C51.2793 49.1607 51.3091 49.109 51.3091 49.0487C51.3091 49 51.2921 48.9592 51.258 48.9263C51.2239 48.8929 51.1715 48.8679 51.1009 48.8515L50.8671 48.7967C50.7387 48.7662 50.6443 48.7191 50.5841 48.6551C50.5244 48.5906 50.4946 48.5099 50.4946 48.4131C50.4946 48.334 50.5168 48.264 50.5612 48.2031C50.6063 48.1422 50.6675 48.0945 50.7448 48.0598C50.8227 48.0251 50.911 48.0077 51.0096 48.0077C51.1484 48.0077 51.2574 48.0381 51.3365 48.099C51.4162 48.1599 51.4729 48.2403 51.5063 48.3401Z"
        fill="white" />
    <path
        d="M49.9026 49.4286V48.026H50.1181V49.4286H49.9026ZM50.0122 47.7922C49.9702 47.7922 49.9339 47.7779 49.9035 47.7493C49.8737 47.7207 49.8588 47.6863 49.8588 47.6461C49.8588 47.6059 49.8737 47.5715 49.9035 47.5429C49.9339 47.5143 49.9702 47.5 50.0122 47.5C50.0542 47.5 50.0901 47.5143 50.1199 47.5429C50.1504 47.5715 50.1656 47.6059 50.1656 47.6461C50.1656 47.6863 50.1504 47.7207 50.1199 47.7493C50.0901 47.7779 50.0542 47.7922 50.0122 47.7922Z"
        fill="white" />
    <path
        d="M48.6607 49.4286H48.0836V47.5584H48.6863C48.8677 47.5584 49.0229 47.5959 49.152 47.6708C49.2811 47.745 49.38 47.8519 49.4488 47.9913C49.5176 48.1301 49.552 48.2963 49.552 48.4899C49.552 48.6847 49.5173 48.8524 49.4479 48.993C49.3785 49.133 49.2774 49.2408 49.1447 49.3163C49.012 49.3911 48.8507 49.4286 48.6607 49.4286ZM48.3101 49.2277H48.6461C48.8007 49.2277 48.9289 49.1978 49.0306 49.1382C49.1322 49.0785 49.208 48.9936 49.2579 48.8834C49.3078 48.7732 49.3328 48.642 49.3328 48.4899C49.3328 48.3389 49.3082 48.2089 49.2588 48.0999C49.2095 47.9904 49.1359 47.9064 49.0379 47.8479C48.9398 47.7889 48.8178 47.7593 48.6717 47.7593H48.3101V49.2277Z"
        fill="white" />
    <path d="M70.22 44.5584V46.4286H70.0045V44.5584H70.22Z" fill="white" />
    <path
        d="M68.9682 46.4614C68.8794 46.4614 68.7987 46.4447 68.7263 46.4112C68.6538 46.3771 68.5963 46.3281 68.5537 46.2642C68.5111 46.1997 68.4897 46.1218 68.4897 46.0304C68.4897 45.9501 68.5056 45.8849 68.5372 45.835C68.5689 45.7845 68.6112 45.7449 68.6642 45.7163C68.7171 45.6877 68.7756 45.6664 68.8395 45.6524C68.904 45.6378 68.9688 45.6262 69.034 45.6177C69.1192 45.6067 69.1883 45.5985 69.2413 45.593C69.2948 45.587 69.3338 45.5769 69.3582 45.5629C69.3831 45.5489 69.3956 45.5246 69.3956 45.4899V45.4825C69.3956 45.3924 69.3709 45.3224 69.3216 45.2725C69.2729 45.2226 69.199 45.1976 69.0997 45.1976C68.9968 45.1976 68.9162 45.2202 68.8577 45.2652C68.7993 45.3103 68.7582 45.3584 68.7345 45.4095L68.5299 45.3364C68.5665 45.2512 68.6152 45.1849 68.676 45.1374C68.7375 45.0893 68.8045 45.0558 68.8769 45.0369C68.95 45.0174 69.0218 45.0077 69.0924 45.0077C69.1375 45.0077 69.1892 45.0132 69.2477 45.0241C69.3067 45.0345 69.3636 45.0561 69.4184 45.089C69.4738 45.1219 69.5198 45.1715 69.5563 45.2378C69.5928 45.3042 69.6111 45.3931 69.6111 45.5045V46.4286H69.3956V46.2386H69.3846C69.37 46.2691 69.3457 46.3016 69.3116 46.3363C69.2775 46.371 69.2321 46.4006 69.1755 46.4249C69.1189 46.4493 69.0498 46.4614 68.9682 46.4614ZM69.0011 46.2679C69.0863 46.2679 69.1582 46.2511 69.2166 46.2176C69.2757 46.1842 69.3201 46.1409 69.3499 46.088C69.3804 46.035 69.3956 45.9793 69.3956 45.9209V45.7236C69.3865 45.7346 69.3664 45.7446 69.3353 45.7538C69.3049 45.7623 69.2696 45.7699 69.2294 45.7766C69.1898 45.7827 69.1512 45.7881 69.1134 45.793C69.0763 45.7973 69.0462 45.8009 69.023 45.804C68.967 45.8113 68.9147 45.8232 68.866 45.8396C68.8179 45.8554 68.7789 45.8795 68.7491 45.9117C68.7199 45.9434 68.7052 45.9866 68.7052 46.0414C68.7052 46.1163 68.7329 46.1729 68.7883 46.2112C68.8444 46.249 68.9153 46.2679 69.0011 46.2679Z"
        fill="white" />
    <path
        d="M67.689 46.4578C67.5575 46.4578 67.4442 46.4267 67.3493 46.3646C67.2543 46.3026 67.1812 46.217 67.1301 46.1081C67.079 45.9991 67.0534 45.8746 67.0534 45.7346C67.0534 45.5921 67.0796 45.4664 67.1319 45.3574C67.1849 45.2479 67.2586 45.1623 67.3529 45.1009C67.4479 45.0388 67.5587 45.0077 67.6853 45.0077C67.7839 45.0077 67.8728 45.026 67.9519 45.0625C68.0311 45.099 68.0959 45.1502 68.1464 45.2159C68.197 45.2817 68.2283 45.3584 68.2405 45.446H68.025C68.0086 45.3821 67.972 45.3255 67.9154 45.2762C67.8594 45.2263 67.7839 45.2013 67.689 45.2013C67.6049 45.2013 67.5313 45.2232 67.468 45.267C67.4053 45.3103 67.3563 45.3714 67.321 45.4506C67.2863 45.5291 67.2689 45.6213 67.2689 45.7273C67.2689 45.8356 67.286 45.93 67.32 46.0103C67.3547 46.0907 67.4034 46.1531 67.4662 46.1975C67.5295 46.242 67.6037 46.2642 67.689 46.2642C67.745 46.2642 67.7958 46.2545 67.8415 46.235C67.8871 46.2155 67.9258 46.1875 67.9574 46.151C67.9891 46.1144 68.0116 46.0706 68.025 46.0195H68.2405C68.2283 46.1023 68.1982 46.1768 68.1501 46.2432C68.1026 46.3089 68.0396 46.3613 67.9611 46.4003C67.8832 46.4386 67.7924 46.4578 67.689 46.4578Z"
        fill="white" />
    <path
        d="M66.5089 46.4286V45.026H66.7244V46.4286H66.5089ZM66.6185 44.7922C66.5765 44.7922 66.5403 44.7779 66.5098 44.7493C66.48 44.7207 66.4651 44.6863 66.4651 44.6461C66.4651 44.6059 66.48 44.5715 66.5098 44.5429C66.5403 44.5143 66.5765 44.5 66.6185 44.5C66.6605 44.5 66.6964 44.5143 66.7262 44.5429C66.7567 44.5715 66.7719 44.6059 66.7719 44.6461C66.7719 44.6863 66.7567 44.7207 66.7262 44.7493C66.6964 44.7779 66.6605 44.7922 66.6185 44.7922Z"
        fill="white" />
    <path
        d="M66.2245 45.026L65.7058 46.4286H65.4866L64.968 45.026H65.2017L65.5889 46.1437H65.6035L65.9907 45.026H66.2245Z"
        fill="white" />
    <path
        d="M64.0781 46.4286V45.026H64.2863V45.2378H64.3009C64.3265 45.1684 64.3728 45.1121 64.4397 45.0689C64.5067 45.0257 64.5822 45.0041 64.6662 45.0041C64.682 45.0041 64.7018 45.0044 64.7255 45.005C64.7493 45.0056 64.7672 45.0065 64.7794 45.0077V45.2269C64.7721 45.225 64.7554 45.2223 64.7292 45.2186C64.7036 45.2144 64.6765 45.2123 64.6479 45.2123C64.5797 45.2123 64.5189 45.2266 64.4653 45.2552C64.4123 45.2832 64.3703 45.3221 64.3393 45.3721C64.3088 45.4214 64.2936 45.4777 64.2936 45.541V46.4286H64.0781Z"
        fill="white" />
    <path
        d="M63.1695 46.4578C63.0344 46.4578 62.9178 46.428 62.8198 46.3683C62.7224 46.308 62.6472 46.224 62.5942 46.1163C62.5419 46.0079 62.5157 45.8819 62.5157 45.7382C62.5157 45.5946 62.5419 45.4679 62.5942 45.3584C62.6472 45.2482 62.7208 45.1623 62.8152 45.1009C62.9102 45.0388 63.021 45.0077 63.1476 45.0077C63.2206 45.0077 63.2928 45.0199 63.364 45.0442C63.4352 45.0686 63.5001 45.1082 63.5585 45.1629C63.6169 45.2171 63.6635 45.289 63.6982 45.3784C63.7329 45.4679 63.7503 45.5781 63.7503 45.709V45.8003H62.6691V45.614H63.5311C63.5311 45.5349 63.5153 45.4643 63.4836 45.4022C63.4526 45.3401 63.4081 45.2911 63.3503 45.2552C63.2931 45.2193 63.2255 45.2013 63.1476 45.2013C63.0618 45.2013 62.9875 45.2226 62.9248 45.2652C62.8627 45.3072 62.8149 45.362 62.7814 45.4296C62.7479 45.4972 62.7312 45.5696 62.7312 45.6469V45.7711C62.7312 45.877 62.7495 45.9668 62.786 46.0405C62.8231 46.1135 62.8746 46.1692 62.9403 46.2076C63.006 46.2453 63.0824 46.2642 63.1695 46.2642C63.2261 46.2642 63.2773 46.2563 63.3229 46.2405C63.3692 46.224 63.4091 46.1997 63.4425 46.1674C63.476 46.1345 63.5019 46.0937 63.5202 46.045L63.7283 46.1035C63.7064 46.1741 63.6696 46.2362 63.6179 46.2898C63.5661 46.3427 63.5022 46.3841 63.4261 46.414C63.35 46.4432 63.2645 46.4578 63.1695 46.4578Z"
        fill="white" />
    <path
        d="M62.2447 45.1429H62.0183C62.0049 45.0777 61.9814 45.0205 61.948 44.9712C61.9151 44.9219 61.8749 44.8805 61.8274 44.847C61.7805 44.8129 61.7285 44.7873 61.6713 44.7703C61.614 44.7532 61.5544 44.7447 61.4923 44.7447C61.3791 44.7447 61.2765 44.7733 61.1846 44.8306C61.0932 44.8878 61.0205 44.9721 60.9663 45.0835C60.9128 45.1949 60.886 45.3316 60.886 45.4935C60.886 45.6554 60.9128 45.7921 60.9663 45.9035C61.0205 46.0149 61.0932 46.0992 61.1846 46.1565C61.2765 46.2137 61.3791 46.2423 61.4923 46.2423C61.5544 46.2423 61.614 46.2338 61.6713 46.2167C61.7285 46.1997 61.7805 46.1744 61.8274 46.1409C61.8749 46.1068 61.9151 46.0651 61.948 46.0158C61.9814 45.9659 62.0049 45.9087 62.0183 45.8442H62.2447C62.2277 45.9397 62.1966 46.0253 62.1516 46.1008C62.1065 46.1762 62.0505 46.2405 61.9836 46.2934C61.9166 46.3458 61.8414 46.3857 61.758 46.413C61.6752 46.4404 61.5867 46.4541 61.4923 46.4541C61.3328 46.4541 61.191 46.4152 61.0668 46.3373C60.9426 46.2593 60.8449 46.1485 60.7736 46.0049C60.7024 45.8612 60.6668 45.6907 60.6668 45.4935C60.6668 45.2963 60.7024 45.1258 60.7736 44.9821C60.8449 44.8385 60.9426 44.7277 61.0668 44.6498C61.191 44.5718 61.3328 44.5329 61.4923 44.5329C61.5867 44.5329 61.6752 44.5466 61.758 44.574C61.8414 44.6014 61.9166 44.6415 61.9836 44.6945C62.0505 44.7469 62.1065 44.8108 62.1516 44.8863C62.1966 44.9611 62.2277 45.0467 62.2447 45.1429Z"
        fill="white" />
    <path
        d="M58.92 46.4578C58.8031 46.4578 58.6999 46.4283 58.6104 46.3692C58.5209 46.3096 58.4509 46.2255 58.4004 46.1172C58.3498 46.0082 58.3246 45.8795 58.3246 45.7309C58.3246 45.5836 58.3498 45.4558 58.4004 45.3474C58.4509 45.239 58.5212 45.1553 58.6113 45.0963C58.7014 45.0372 58.8055 45.0077 58.9236 45.0077C59.0149 45.0077 59.0871 45.0229 59.14 45.0534C59.1936 45.0832 59.2344 45.1173 59.2624 45.1556C59.291 45.1934 59.3132 45.2244 59.329 45.2488H59.3473V44.5584H59.5628V46.4286H59.3546V46.2131H59.329C59.3132 46.2386 59.2907 46.2709 59.2615 46.3099C59.2323 46.3482 59.1906 46.3826 59.1364 46.413C59.0822 46.4429 59.0101 46.4578 58.92 46.4578ZM58.9492 46.2642C59.0356 46.2642 59.1087 46.2417 59.1683 46.1966C59.228 46.151 59.2733 46.088 59.3044 46.0076C59.3354 45.9266 59.351 45.8332 59.351 45.7273C59.351 45.6226 59.3357 45.5309 59.3053 45.4524C59.2749 45.3733 59.2298 45.3118 59.1702 45.268C59.1105 45.2235 59.0368 45.2013 58.9492 45.2013C58.8579 45.2013 58.7818 45.2247 58.7209 45.2716C58.6606 45.3179 58.6153 45.3809 58.5848 45.4606C58.555 45.5398 58.5401 45.6287 58.5401 45.7273C58.5401 45.8271 58.5553 45.9178 58.5857 45.9994C58.6168 46.0804 58.6625 46.1449 58.7227 46.193C58.7836 46.2405 58.8591 46.2642 58.9492 46.2642Z"
        fill="white" />
    <path
        d="M57.4818 46.4578C57.3466 46.4578 57.23 46.428 57.132 46.3683C57.0346 46.308 56.9594 46.224 56.9065 46.1163C56.8541 46.0079 56.8279 45.8819 56.8279 45.7382C56.8279 45.5946 56.8541 45.4679 56.9065 45.3584C56.9594 45.2482 57.0331 45.1623 57.1275 45.1009C57.2224 45.0388 57.3332 45.0077 57.4598 45.0077C57.5329 45.0077 57.605 45.0199 57.6763 45.0442C57.7475 45.0686 57.8123 45.1082 57.8708 45.1629C57.9292 45.2171 57.9758 45.289 58.0105 45.3784C58.0452 45.4679 58.0625 45.5781 58.0625 45.709V45.8003H56.9814V45.614H57.8434C57.8434 45.5349 57.8275 45.4643 57.7959 45.4022C57.7648 45.3401 57.7204 45.2911 57.6626 45.2552C57.6053 45.2193 57.5378 45.2013 57.4598 45.2013C57.374 45.2013 57.2997 45.2226 57.237 45.2652C57.1749 45.3072 57.1272 45.362 57.0937 45.4296C57.0602 45.4972 57.0434 45.5696 57.0434 45.6469V45.7711C57.0434 45.877 57.0617 45.9668 57.0982 46.0405C57.1354 46.1135 57.1868 46.1692 57.2526 46.2076C57.3183 46.2453 57.3947 46.2642 57.4818 46.2642C57.5384 46.2642 57.5895 46.2563 57.6352 46.2405C57.6814 46.224 57.7213 46.1997 57.7548 46.1674C57.7883 46.1345 57.8141 46.0937 57.8324 46.045L58.0406 46.1035C58.0187 46.1741 57.9819 46.2362 57.9301 46.2898C57.8784 46.3427 57.8144 46.3841 57.7384 46.414C57.6623 46.4432 57.5767 46.4578 57.4818 46.4578Z"
        fill="white" />
    <path
        d="M56.5846 45.026V45.2086H55.8577V45.026H56.5846ZM56.0696 44.6899H56.2851V46.0268C56.2851 46.0877 56.2939 46.1333 56.3116 46.1638C56.3298 46.1936 56.353 46.2137 56.381 46.224C56.4096 46.2338 56.4397 46.2386 56.4714 46.2386C56.4951 46.2386 56.5146 46.2374 56.5298 46.235C56.545 46.2319 56.5572 46.2295 56.5663 46.2277L56.6102 46.4213C56.5956 46.4267 56.5752 46.4322 56.549 46.4377C56.5228 46.4438 56.4896 46.4468 56.4494 46.4468C56.3886 46.4468 56.3289 46.4337 56.2705 46.4076C56.2126 46.3814 56.1645 46.3415 56.1262 46.2879C56.0884 46.2344 56.0696 46.1668 56.0696 46.0852V44.6899Z"
        fill="white" />
    <path
        d="M54.9384 46.4614C54.8495 46.4614 54.7688 46.4447 54.6964 46.4112C54.624 46.3771 54.5664 46.3281 54.5238 46.2642C54.4812 46.1997 54.4599 46.1218 54.4599 46.0304C54.4599 45.9501 54.4757 45.8849 54.5074 45.835C54.539 45.7845 54.5813 45.7449 54.6343 45.7163C54.6873 45.6877 54.7457 45.6664 54.8096 45.6524C54.8742 45.6378 54.939 45.6262 55.0041 45.6177C55.0894 45.6067 55.1585 45.5985 55.2114 45.593C55.265 45.587 55.304 45.5769 55.3283 45.5629C55.3533 45.5489 55.3657 45.5246 55.3657 45.4899V45.4825C55.3657 45.3924 55.3411 45.3224 55.2918 45.2725C55.2431 45.2226 55.1691 45.1976 55.0699 45.1976C54.967 45.1976 54.8863 45.2202 54.8279 45.2652C54.7695 45.3103 54.7284 45.3584 54.7046 45.4095L54.5001 45.3364C54.5366 45.2512 54.5853 45.1849 54.6462 45.1374C54.7077 45.0893 54.7746 45.0558 54.8471 45.0369C54.9201 45.0174 54.992 45.0077 55.0626 45.0077C55.1076 45.0077 55.1594 45.0132 55.2178 45.0241C55.2769 45.0345 55.3338 45.0561 55.3886 45.089C55.444 45.1219 55.4899 45.1715 55.5265 45.2378C55.563 45.3042 55.5812 45.3931 55.5812 45.5045V46.4286H55.3657V46.2386H55.3548C55.3402 46.2691 55.3158 46.3016 55.2817 46.3363C55.2476 46.371 55.2023 46.4006 55.1457 46.4249C55.0891 46.4493 55.02 46.4614 54.9384 46.4614ZM54.9713 46.2679C55.0565 46.2679 55.1283 46.2511 55.1868 46.2176C55.2458 46.1842 55.2903 46.1409 55.3201 46.088C55.3505 46.035 55.3657 45.9793 55.3657 45.9209V45.7236C55.3566 45.7346 55.3365 45.7446 55.3055 45.7538C55.275 45.7623 55.2397 45.7699 55.1996 45.7766C55.16 45.7827 55.1213 45.7881 55.0836 45.793C55.0464 45.7973 55.0163 45.8009 54.9932 45.804C54.9372 45.8113 54.8848 45.8232 54.8361 45.8396C54.788 45.8554 54.7491 45.8795 54.7192 45.9117C54.69 45.9434 54.6754 45.9866 54.6754 46.0414C54.6754 46.1163 54.7031 46.1729 54.7585 46.2112C54.8145 46.249 54.8854 46.2679 54.9713 46.2679Z"
        fill="white" />
    <path
        d="M53.9154 46.4286V45.026H54.1309V46.4286H53.9154ZM54.025 44.7922C53.983 44.7922 53.9468 44.7779 53.9163 44.7493C53.8865 44.7207 53.8716 44.6863 53.8716 44.6461C53.8716 44.6059 53.8865 44.5715 53.9163 44.5429C53.9468 44.5143 53.983 44.5 54.025 44.5C54.067 44.5 54.1029 44.5143 54.1327 44.5429C54.1632 44.5715 54.1784 44.6059 54.1784 44.6461C54.1784 44.6863 54.1632 44.7207 54.1327 44.7493C54.1029 44.7779 54.067 44.7922 54.025 44.7922Z"
        fill="white" />
    <path
        d="M52.6268 45.5848V46.4286H52.4113V45.026H52.6195V45.2451H52.6377C52.6706 45.1739 52.7205 45.1167 52.7875 45.0735C52.8544 45.0296 52.9409 45.0077 53.0468 45.0077C53.1418 45.0077 53.2249 45.0272 53.2961 45.0662C53.3673 45.1045 53.4227 45.1629 53.4623 45.2415C53.5019 45.3194 53.5216 45.418 53.5216 45.5373V46.4286H53.3061V45.5519C53.3061 45.4418 53.2775 45.3559 53.2203 45.2944C53.1631 45.2323 53.0846 45.2013 52.9847 45.2013C52.9159 45.2013 52.8544 45.2162 52.8003 45.246C52.7467 45.2759 52.7044 45.3194 52.6733 45.3766C52.6423 45.4338 52.6268 45.5032 52.6268 45.5848Z"
        fill="white" />
    <path
        d="M51.4545 46.4286V45.026H51.6627V45.2378H51.6773C51.7029 45.1684 51.7492 45.1121 51.8161 45.0689C51.8831 45.0257 51.9586 45.0041 52.0426 45.0041C52.0584 45.0041 52.0782 45.0044 52.102 45.005C52.1257 45.0056 52.1437 45.0065 52.1558 45.0077V45.2269C52.1485 45.225 52.1318 45.2223 52.1056 45.2186C52.08 45.2144 52.0529 45.2123 52.0243 45.2123C51.9562 45.2123 51.8953 45.2266 51.8417 45.2552C51.7887 45.2832 51.7467 45.3221 51.7157 45.3721C51.6853 45.4214 51.67 45.4777 51.67 45.541V46.4286H51.4545Z"
        fill="white" />
    <path
        d="M50.5459 46.4578C50.4108 46.4578 50.2942 46.428 50.1962 46.3683C50.0988 46.308 50.0236 46.224 49.9706 46.1163C49.9183 46.0079 49.8921 45.8819 49.8921 45.7382C49.8921 45.5946 49.9183 45.4679 49.9706 45.3584C50.0236 45.2482 50.0972 45.1623 50.1916 45.1009C50.2866 45.0388 50.3974 45.0077 50.524 45.0077C50.597 45.0077 50.6692 45.0199 50.7404 45.0442C50.8116 45.0686 50.8765 45.1082 50.9349 45.1629C50.9933 45.2171 51.0399 45.289 51.0746 45.3784C51.1093 45.4679 51.1267 45.5781 51.1267 45.709V45.8003H50.0455V45.614H50.9075C50.9075 45.5349 50.8917 45.4643 50.86 45.4022C50.829 45.3401 50.7845 45.2911 50.7267 45.2552C50.6695 45.2193 50.6019 45.2013 50.524 45.2013C50.4382 45.2013 50.3639 45.2226 50.3012 45.2652C50.2391 45.3072 50.1913 45.362 50.1578 45.4296C50.1243 45.4972 50.1076 45.5696 50.1076 45.6469V45.7711C50.1076 45.877 50.1259 45.9668 50.1624 46.0405C50.1995 46.1135 50.251 46.1692 50.3167 46.2076C50.3825 46.2453 50.4589 46.2642 50.5459 46.2642C50.6025 46.2642 50.6537 46.2563 50.6993 46.2405C50.7456 46.224 50.7855 46.1997 50.8189 46.1674C50.8524 46.1345 50.8783 46.0937 50.8966 46.045L51.1048 46.1035C51.0828 46.1741 51.046 46.2362 50.9943 46.2898C50.9425 46.3427 50.8786 46.3841 50.8025 46.414C50.7264 46.4432 50.6409 46.4578 50.5459 46.4578Z"
        fill="white" />
    <path
        d="M48.0836 46.4286V44.5584H48.3101V45.3912H49.3072V44.5584H49.5337V46.4286H49.3072V45.5921H48.3101V46.4286H48.0836Z"
        fill="white" />
    <path
        d="M45.9286 46.0852C45.8549 46.0852 45.7877 46.0673 45.7268 46.0313C45.6659 45.9948 45.6172 45.9461 45.5807 45.8852C45.5448 45.8244 45.5268 45.7571 45.5268 45.6834C45.5268 45.6092 45.5448 45.5419 45.5807 45.4816C45.6172 45.4208 45.6659 45.3724 45.7268 45.3364C45.7877 45.2999 45.8549 45.2817 45.9286 45.2817C46.0028 45.2817 46.0701 45.2999 46.1304 45.3364C46.1913 45.3724 46.2397 45.4208 46.2756 45.4816C46.3121 45.5419 46.3304 45.6092 46.3304 45.6834C46.3304 45.7571 46.3121 45.8244 46.2756 45.8852C46.2397 45.9461 46.1913 45.9948 46.1304 46.0313C46.0701 46.0673 46.0028 46.0852 45.9286 46.0852Z"
        fill="white" />
    <rect x="45.4143" y="38.1286" width="4.88571" height="4.88571" rx="2.44286" stroke="white"
        stroke-width="0.257143" />
    <path
        d="M46.4351 40.4351C46.3598 40.5104 46.3598 40.6325 46.4351 40.7078L47.6624 41.9351C47.7377 42.0104 47.8598 42.0104 47.9352 41.9351C48.0105 41.8598 48.0105 41.7377 47.9352 41.6624L46.8442 40.5714L47.9352 39.4805C48.0105 39.4051 48.0105 39.283 47.9352 39.2077C47.8598 39.1324 47.7377 39.1324 47.6624 39.2077L46.4351 40.4351ZM49.1429 40.3786H46.5715V40.7643H49.1429V40.3786Z"
        fill="white" />
    <rect x="47.7072" y="61.85" width="24.3" height="4.3" rx="0.586334" fill="#BDE2C6" />
    <rect x="47.7072" y="61.85" width="24.3" height="4.3" rx="0.586334" stroke="#57CF74" stroke-width="0.3" />
    <path
        d="M71.1466 63.9121L70.9531 63.9669C70.9409 63.9346 70.923 63.9033 70.8992 63.8729C70.8761 63.8419 70.8445 63.8163 70.8043 63.7962C70.7642 63.7761 70.7128 63.7661 70.6501 63.7661C70.5643 63.7661 70.4928 63.7859 70.4356 63.8254C70.379 63.8644 70.3507 63.914 70.3507 63.9742C70.3507 64.0277 70.3702 64.07 70.4092 64.101C70.4481 64.1321 70.5089 64.1579 70.5917 64.1786L70.7998 64.2297C70.9251 64.2602 71.0185 64.3067 71.0799 64.3694C71.1414 64.4314 71.1721 64.5114 71.1721 64.6094C71.1721 64.6897 71.149 64.7615 71.1028 64.8248C71.0571 64.888 70.9932 64.9379 70.9111 64.9744C70.829 65.011 70.7334 65.0292 70.6245 65.0292C70.4816 65.0292 70.3632 64.9982 70.2695 64.9361C70.1758 64.8741 70.1165 64.7834 70.0916 64.6641L70.296 64.613C70.3155 64.6885 70.3523 64.7451 70.4064 64.7828C70.4612 64.8205 70.5327 64.8394 70.6209 64.8394C70.7213 64.8394 70.801 64.8181 70.86 64.7755C70.9196 64.7323 70.9494 64.6806 70.9494 64.6203C70.9494 64.5717 70.9324 64.5309 70.8983 64.498C70.8643 64.4646 70.8119 64.4396 70.7414 64.4232L70.5077 64.3685C70.3793 64.338 70.285 64.2909 70.2248 64.227C70.1652 64.1625 70.1354 64.0819 70.1354 63.9851C70.1354 63.906 70.1576 63.8361 70.202 63.7752C70.247 63.7144 70.3082 63.6666 70.3854 63.6319C70.4633 63.5973 70.5515 63.5799 70.6501 63.5799C70.7888 63.5799 70.8977 63.6104 70.9768 63.6712C71.0565 63.732 71.1131 63.8123 71.1466 63.9121Z"
        fill="black" />
    <path
        d="M69.2455 65.0292C69.1104 65.0292 68.9939 64.9994 68.896 64.9398C68.7986 64.8795 68.7235 64.7956 68.6705 64.6879C68.6182 64.5796 68.592 64.4536 68.592 64.31C68.592 64.1665 68.6182 64.0399 68.6705 63.9304C68.7235 63.8203 68.7971 63.7345 68.8914 63.673C68.9863 63.611 69.097 63.5799 69.2236 63.5799C69.2966 63.5799 69.3687 63.5921 69.4399 63.6164C69.5111 63.6408 69.5759 63.6803 69.6343 63.7351C69.6927 63.7892 69.7392 63.861 69.7739 63.9505C69.8086 64.0399 69.8259 64.15 69.8259 64.2808V64.3721H68.7454V64.1859H69.6069C69.6069 64.1068 69.5911 64.0363 69.5594 63.9742C69.5284 63.9121 69.484 63.8632 69.4262 63.8273C69.369 63.7914 69.3015 63.7734 69.2236 63.7734C69.1378 63.7734 69.0636 63.7947 69.0009 63.8373C68.9388 63.8793 68.8911 63.934 68.8576 64.0016C68.8242 64.0691 68.8074 64.1415 68.8074 64.2188V64.3429C68.8074 64.4488 68.8257 64.5385 68.8622 64.6121C68.8993 64.6851 68.9507 64.7408 69.0164 64.7791C69.0821 64.8169 69.1585 64.8357 69.2455 64.8357C69.3021 64.8357 69.3532 64.8278 69.3988 64.812C69.4451 64.7956 69.4849 64.7712 69.5184 64.739C69.5518 64.7061 69.5777 64.6654 69.5959 64.6167L69.804 64.6751C69.7821 64.7457 69.7453 64.8077 69.6936 64.8613C69.6419 64.9142 69.578 64.9556 69.5019 64.9854C69.4259 65.0146 69.3404 65.0292 69.2455 65.0292Z"
        fill="black" />
    <path
        d="M67.7442 65V63.5982H67.9523V63.8099H67.9669C67.9924 63.7406 68.0387 63.6843 68.1056 63.6411C68.1725 63.5979 68.248 63.5763 68.3319 63.5763C68.3478 63.5763 68.3675 63.5766 68.3913 63.5772C68.415 63.5778 68.4329 63.5787 68.4451 63.5799V63.799C68.4378 63.7971 68.4211 63.7944 68.3949 63.7907C68.3694 63.7865 68.3423 63.7844 68.3137 63.7844C68.2455 63.7844 68.1847 63.7987 68.1312 63.8273C68.0782 63.8552 68.0362 63.8942 68.0052 63.9441C67.9748 63.9934 67.9596 64.0496 67.9596 64.1129V65H67.7442Z"
        fill="black" />
    <path
        d="M67.1344 64.4269V63.5982H67.3497V65H67.1344V64.7627H67.1198C67.0869 64.8339 67.0358 64.8944 66.9664 64.9443C66.8971 64.9936 66.8095 65.0183 66.7036 65.0183C66.616 65.0183 66.5381 64.9991 66.4699 64.9608C66.4018 64.9218 66.3483 64.8634 66.3093 64.7855C66.2704 64.707 66.2509 64.6082 66.2509 64.4889V63.5982H66.4663V64.4743C66.4663 64.5765 66.4949 64.6581 66.5521 64.7189C66.6099 64.7797 66.6835 64.8102 66.7729 64.8102C66.8265 64.8102 66.8809 64.7965 66.9363 64.7691C66.9923 64.7417 67.0391 64.6997 67.0769 64.6432C67.1152 64.5866 67.1344 64.5145 67.1344 64.4269Z"
        fill="black" />
    <path
        d="M65.184 65.0292C65.0672 65.0292 64.9641 64.9997 64.8746 64.9407C64.7852 64.8811 64.7152 64.7971 64.6647 64.6888C64.6142 64.5799 64.589 64.4512 64.589 64.3027C64.589 64.1555 64.6142 64.0277 64.6647 63.9194C64.7152 63.8111 64.7855 63.7275 64.8756 63.6685C64.9656 63.6094 65.0696 63.5799 65.1877 63.5799C65.2789 63.5799 65.351 63.5951 65.404 63.6256C65.4575 63.6554 65.4983 63.6894 65.5263 63.7278C65.5549 63.7655 65.5771 63.7965 65.5929 63.8209H65.6111V63.1309H65.8265V65H65.6185V64.7846H65.5929C65.5771 64.8102 65.5546 64.8424 65.5254 64.8814C65.4962 64.9197 65.4545 64.9541 65.4003 64.9845C65.3462 65.0143 65.2741 65.0292 65.184 65.0292ZM65.2132 64.8357C65.2996 64.8357 65.3726 64.8132 65.4323 64.7682C65.4919 64.7226 65.5372 64.6596 65.5683 64.5793C65.5993 64.4984 65.6148 64.405 65.6148 64.2991C65.6148 64.1944 65.5996 64.1029 65.5692 64.0244C65.5387 63.9453 65.4937 63.8838 65.4341 63.84C65.3745 63.7956 65.3008 63.7734 65.2132 63.7734C65.122 63.7734 65.0459 63.7968 64.9851 63.8437C64.9248 63.8899 64.8795 63.9529 64.8491 64.0326C64.8193 64.1117 64.8044 64.2005 64.8044 64.2991C64.8044 64.3989 64.8196 64.4895 64.85 64.5711C64.881 64.652 64.9267 64.7165 64.9869 64.7645C65.0477 64.812 65.1232 64.8357 65.2132 64.8357Z"
        fill="black" />
    <path
        d="M63.7466 65.0292C63.6115 65.0292 63.495 64.9994 63.397 64.9398C63.2997 64.8795 63.2246 64.7956 63.1716 64.6879C63.1193 64.5796 63.0931 64.4536 63.0931 64.31C63.0931 64.1665 63.1193 64.0399 63.1716 63.9304C63.2246 63.8203 63.2982 63.7345 63.3925 63.673C63.4874 63.611 63.5981 63.5799 63.7247 63.5799C63.7977 63.5799 63.8698 63.5921 63.941 63.6164C64.0122 63.6408 64.077 63.6803 64.1354 63.7351C64.1938 63.7892 64.2403 63.861 64.275 63.9505C64.3097 64.0399 64.327 64.15 64.327 64.2808V64.3721H63.2465V64.1859H64.108C64.108 64.1068 64.0922 64.0363 64.0605 63.9742C64.0295 63.9121 63.9851 63.8632 63.9273 63.8273C63.8701 63.7914 63.8026 63.7734 63.7247 63.7734C63.6389 63.7734 63.5647 63.7947 63.502 63.8373C63.4399 63.8793 63.3922 63.934 63.3587 64.0016C63.3253 64.0691 63.3085 64.1415 63.3085 64.2188V64.3429C63.3085 64.4488 63.3268 64.5385 63.3633 64.6121C63.4004 64.6851 63.4518 64.7408 63.5175 64.7791C63.5832 64.8169 63.6596 64.8357 63.7466 64.8357C63.8032 64.8357 63.8543 64.8278 63.8999 64.812C63.9462 64.7956 63.986 64.7712 64.0195 64.739C64.0529 64.7061 64.0788 64.6654 64.097 64.6167L64.3051 64.6751C64.2832 64.7457 64.2464 64.8077 64.1947 64.8613C64.143 64.9142 64.0791 64.9556 64.003 64.9854C63.927 65.0146 63.8415 65.0292 63.7466 65.0292Z"
        fill="black" />
    <path
        d="M62.2928 65.0292C62.1614 65.0292 62.0482 64.9982 61.9533 64.9361C61.8584 64.8741 61.7854 64.7886 61.7343 64.6797C61.6831 64.5708 61.6576 64.4463 61.6576 64.3064C61.6576 64.164 61.6838 64.0384 61.7361 63.9295C61.789 63.82 61.8626 63.7345 61.9569 63.673C62.0519 63.611 62.1626 63.5799 62.2891 63.5799C62.3877 63.5799 62.4765 63.5982 62.5556 63.6347C62.6347 63.6712 62.6995 63.7223 62.75 63.788C62.8005 63.8537 62.8319 63.9304 62.844 64.018H62.6286C62.6122 63.9541 62.5757 63.8975 62.5191 63.8482C62.4632 63.7984 62.3877 63.7734 62.2928 63.7734C62.2088 63.7734 62.1352 63.7953 62.0719 63.8391C62.0093 63.8823 61.9603 63.9435 61.925 64.0226C61.8903 64.101 61.873 64.1932 61.873 64.2991C61.873 64.4074 61.89 64.5017 61.9241 64.582C61.9588 64.6623 62.0074 64.7247 62.0701 64.7691C62.1334 64.8135 62.2076 64.8357 62.2928 64.8357C62.3488 64.8357 62.3996 64.826 62.4452 64.8065C62.4908 64.7871 62.5295 64.7591 62.5611 64.7226C62.5927 64.6861 62.6153 64.6422 62.6286 64.5911H62.844C62.8319 64.6739 62.8017 64.7484 62.7537 64.8147C62.7062 64.8804 62.6432 64.9328 62.5648 64.9717C62.4869 65.01 62.3962 65.0292 62.2928 65.0292Z"
        fill="black" />
    <path
        d="M60.7593 65.0292C60.6327 65.0292 60.5217 64.9991 60.4262 64.9389C60.3313 64.8786 60.257 64.7944 60.2035 64.6861C60.1506 64.5778 60.1241 64.4512 60.1241 64.3064C60.1241 64.1604 60.1506 64.0329 60.2035 63.924C60.257 63.8151 60.3313 63.7305 60.4262 63.6703C60.5217 63.61 60.6327 63.5799 60.7593 63.5799C60.8858 63.5799 60.9966 63.61 61.0915 63.6703C61.187 63.7305 61.2612 63.8151 61.3142 63.924C61.3677 64.0329 61.3945 64.1604 61.3945 64.3064C61.3945 64.4512 61.3677 64.5778 61.3142 64.6861C61.2612 64.7944 61.187 64.8786 61.0915 64.9389C60.9966 64.9991 60.8858 65.0292 60.7593 65.0292ZM60.7593 64.8357C60.8554 64.8357 60.9345 64.8111 60.9966 64.7618C61.0586 64.7125 61.1046 64.6477 61.1344 64.5674C61.1642 64.4871 61.1791 64.4001 61.1791 64.3064C61.1791 64.2127 61.1642 64.1254 61.1344 64.0445C61.1046 63.9635 61.0586 63.8981 60.9966 63.8482C60.9345 63.7984 60.8554 63.7734 60.7593 63.7734C60.6632 63.7734 60.5841 63.7984 60.522 63.8482C60.4599 63.8981 60.414 63.9635 60.3842 64.0445C60.3544 64.1254 60.3395 64.2127 60.3395 64.3064C60.3395 64.4001 60.3544 64.4871 60.3842 64.5674C60.414 64.6477 60.4599 64.7125 60.522 64.7618C60.5841 64.8111 60.6632 64.8357 60.7593 64.8357Z"
        fill="black" />
    <path
        d="M59.2762 65V63.5982H59.4843V63.8099H59.4989C59.5245 63.7406 59.5707 63.6843 59.6377 63.6411C59.7046 63.5979 59.78 63.5763 59.864 63.5763C59.8798 63.5763 59.8996 63.5766 59.9233 63.5772C59.947 63.5778 59.965 63.5787 59.9772 63.5799V63.799C59.9699 63.7971 59.9531 63.7944 59.927 63.7907C59.9014 63.7865 59.8743 63.7844 59.8457 63.7844C59.7776 63.7844 59.7167 63.7987 59.6632 63.8273C59.6103 63.8552 59.5683 63.8942 59.5373 63.9441C59.5068 63.9934 59.4916 64.0496 59.4916 64.1129V65H59.2762Z"
        fill="black" />
    <path
        d="M57.6741 65V63.1309H58.3057C58.4523 63.1309 58.5722 63.1574 58.6653 63.2103C58.759 63.2626 58.8283 63.3335 58.8733 63.423C58.9184 63.5124 58.9409 63.6122 58.9409 63.7223C58.9409 63.8324 58.9184 63.9325 58.8733 64.0226C58.8289 64.1126 58.7602 64.1844 58.6671 64.2379C58.574 64.2909 58.4547 64.3173 58.3093 64.3173H57.8567V64.1166H58.302C58.4024 64.1166 58.483 64.0992 58.5439 64.0645C58.6047 64.0299 58.6488 63.983 58.6762 63.924C58.7042 63.8644 58.7182 63.7971 58.7182 63.7223C58.7182 63.6475 58.7042 63.5805 58.6762 63.5215C58.6488 63.4625 58.6044 63.4163 58.543 63.3828C58.4815 63.3487 58.4 63.3317 58.2984 63.3317H57.9005V65H57.6741Z"
        fill="black" />
    <path d="M56.5276 63.1309V65H56.3123V63.1309H56.5276Z" fill="black" />
    <path d="M55.9177 63.1309V65H55.7023V63.1309H55.9177Z" fill="black" />
    <path
        d="M54.0715 65H53.8342L54.5205 63.1309H54.7541L55.4404 65H55.2031L54.6446 63.4266H54.63L54.0715 65ZM54.1591 64.2699H55.1155V64.4707H54.1591V64.2699Z"
        fill="black" />
    <path
        d="M52.3347 65.0292C52.1997 65.0292 52.0831 64.9994 51.9852 64.9398C51.8878 64.8795 51.8127 64.7956 51.7598 64.6879C51.7074 64.5796 51.6813 64.4536 51.6813 64.31C51.6813 64.1665 51.7074 64.0399 51.7598 63.9304C51.8127 63.8203 51.8863 63.7345 51.9806 63.673C52.0755 63.611 52.1863 63.5799 52.3128 63.5799C52.3858 63.5799 52.4579 63.5921 52.5291 63.6164C52.6003 63.6408 52.6651 63.6803 52.7235 63.7351C52.7819 63.7892 52.8285 63.861 52.8631 63.9505C52.8978 64.0399 52.9152 64.15 52.9152 64.2808V64.3721H51.8346V64.1859H52.6961C52.6961 64.1068 52.6803 64.0363 52.6487 63.9742C52.6176 63.9121 52.5732 63.8632 52.5154 63.8273C52.4582 63.7914 52.3907 63.7734 52.3128 63.7734C52.227 63.7734 52.1528 63.7947 52.0901 63.8373C52.0281 63.8793 51.9803 63.934 51.9469 64.0016C51.9134 64.0691 51.8967 64.1415 51.8967 64.2188V64.3429C51.8967 64.4488 51.9149 64.5385 51.9514 64.6121C51.9885 64.6851 52.0399 64.7408 52.1057 64.7791C52.1714 64.8169 52.2477 64.8357 52.3347 64.8357C52.3913 64.8357 52.4424 64.8278 52.488 64.812C52.5343 64.7956 52.5741 64.7712 52.6076 64.739C52.6411 64.7061 52.6669 64.6654 52.6852 64.6167L52.8933 64.6751C52.8714 64.7457 52.8345 64.8077 52.7828 64.8613C52.7311 64.9142 52.6672 64.9556 52.5912 64.9854C52.5151 65.0146 52.4296 65.0292 52.3347 65.0292Z"
        fill="black" />
    <path
        d="M50.8389 65.0292C50.7038 65.0292 50.5873 64.9994 50.4893 64.9398C50.392 64.8795 50.3168 64.7956 50.2639 64.6879C50.2116 64.5796 50.1854 64.4536 50.1854 64.31C50.1854 64.1665 50.2116 64.0399 50.2639 63.9304C50.3168 63.8203 50.3905 63.7345 50.4848 63.673C50.5797 63.611 50.6904 63.5799 50.817 63.5799C50.89 63.5799 50.9621 63.5921 51.0333 63.6164C51.1045 63.6408 51.1693 63.6803 51.2277 63.7351C51.2861 63.7892 51.3326 63.861 51.3673 63.9505C51.402 64.0399 51.4193 64.15 51.4193 64.2808V64.3721H50.3387V64.1859H51.2003C51.2003 64.1068 51.1845 64.0363 51.1528 63.9742C51.1218 63.9121 51.0774 63.8632 51.0196 63.8273C50.9624 63.7914 50.8949 63.7734 50.817 63.7734C50.7312 63.7734 50.657 63.7947 50.5943 63.8373C50.5322 63.8793 50.4845 63.934 50.451 64.0016C50.4175 64.0691 50.4008 64.1415 50.4008 64.2188V64.3429C50.4008 64.4488 50.4191 64.5385 50.4556 64.6121C50.4927 64.6851 50.5441 64.7408 50.6098 64.7791C50.6755 64.8169 50.7519 64.8357 50.8389 64.8357C50.8955 64.8357 50.9466 64.8278 50.9922 64.812C51.0384 64.7956 51.0783 64.7712 51.1118 64.739C51.1452 64.7061 51.1711 64.6654 51.1893 64.6167L51.3974 64.6751C51.3755 64.7457 51.3387 64.8077 51.287 64.8613C51.2353 64.9142 51.1714 64.9556 51.0953 64.9854C51.0193 65.0146 50.9338 65.0292 50.8389 65.0292Z"
        fill="black" />
    <path
        d="M49.6636 63.5982C49.6527 63.5057 49.6083 63.4339 49.5304 63.3828C49.4525 63.3317 49.357 63.3061 49.2438 63.3061C49.1611 63.3061 49.0887 63.3195 49.0266 63.3463C48.9652 63.3731 48.9171 63.4099 48.8824 63.4567C48.8483 63.5036 48.8313 63.5568 48.8313 63.6164C48.8313 63.6663 48.8432 63.7092 48.8669 63.7451C48.8912 63.7804 48.9223 63.8099 48.96 63.8336C48.9977 63.8568 49.0373 63.8759 49.0786 63.8911C49.12 63.9057 49.158 63.9176 49.1927 63.9267L49.3825 63.9778C49.4312 63.9906 49.4854 64.0083 49.545 64.0308C49.6052 64.0533 49.6627 64.084 49.7175 64.123C49.7728 64.1613 49.8185 64.2106 49.8544 64.2708C49.8903 64.331 49.9082 64.405 49.9082 64.4926C49.9082 64.5936 49.8818 64.6848 49.8288 64.7664C49.7765 64.8479 49.6998 64.9127 49.5988 64.9608C49.4984 65.0088 49.3765 65.0329 49.2329 65.0329C49.099 65.0329 48.9831 65.0113 48.8851 64.9681C48.7878 64.9249 48.7111 64.8646 48.6552 64.7874C48.5998 64.7101 48.5685 64.6203 48.5612 64.5181H48.7948C48.8009 64.5887 48.8246 64.6471 48.866 64.6934C48.908 64.739 48.9609 64.7731 49.0248 64.7956C49.0893 64.8175 49.1586 64.8284 49.2329 64.8284C49.3193 64.8284 49.3968 64.8144 49.4656 64.7864C49.5343 64.7578 49.5888 64.7183 49.6289 64.6678C49.6691 64.6167 49.6892 64.5571 49.6892 64.4889C49.6892 64.4269 49.6718 64.3764 49.6372 64.3374C49.6025 64.2985 49.5568 64.2668 49.5003 64.2425C49.4437 64.2182 49.3825 64.1969 49.3168 64.1786L49.0868 64.1129C48.9408 64.0709 48.8252 64.011 48.74 63.9331C48.6549 63.8552 48.6123 63.7533 48.6123 63.6274C48.6123 63.5227 48.6406 63.4315 48.6971 63.3536C48.7543 63.2751 48.831 63.2143 48.9271 63.1711C49.0239 63.1273 49.1319 63.1054 49.2511 63.1054C49.3716 63.1054 49.4787 63.127 49.5724 63.1702C49.6661 63.2127 49.7403 63.2712 49.795 63.3454C49.8504 63.4196 49.8796 63.5039 49.8827 63.5982H49.6636Z"
        fill="black" />
</svg>